<?xml version="1.0" encoding="UTF-8"?>
<svg width="780px" height="320px" viewBox="0 0 780 320" version="1.1" xmlns="http://www.w3.org/2000/svg" xmlns:xlink="http://www.w3.org/1999/xlink">
    <title>cover-macaw</title>
    <g id="cover-macaw" stroke="none" stroke-width="1" fill="none" fill-rule="evenodd">
        <g id="Group-Copy-2" transform="translate(542.000000, 86.000000)">
            <path d="M65.0172216,106.817616 L61.00796,105.203455 C60.8273566,105.762312 55.4763361,113.731319 55.4763361,113.731319 C41.157067,113.062548 34.0566399,119.202268 37.6687078,119.202268 C41.2807756,119.202268 56.9869865,119.202268 60.8891441,119.202268 C60.8719437,119.170274 61.7319599,119.170274 63.4691925,119.202268 L63.4691925,119.202268 L59.7179357,114.838198 L59.7179357,114.838198 L65.0172216,106.817616 Z" id="Fill-144" fill="#BAA3A5"></path>
            <path d="M115.545025,133.534893 C119.771144,140.114239 109.44579,147.02539 105.090668,140.256146 L81.6947887,103.886038 C77.4738294,97.3180445 87.7888632,90.3800597 92.1491451,97.1637523 L115.545025,133.534893" id="Fill-148" fill="#7ED321"></path>
            <path d="M129.002558,138.497526 C133.233837,145.077904 122.903323,151.989571 118.553361,145.221359 L95.1574816,108.849703 C90.9313622,102.281709 101.246396,95.3447567 105.606678,102.126901 L129.002558,138.497526" id="Fill-149" fill="#1DA029"></path>
            <path d="M72.5975377,43.6816683 L36.6366884,53.1507946 L6.0890481,11.2958055 C18.4371601,-12.1891053 63.7066907,2.06356406 72.5975377,43.6816683 Z" id="Fill-150" fill="#3197F4"></path>
            <path d="M6.0890481,11.2958055 C6.0890481,11.2958055 16.5123103,3.09616279 26.3164945,7.74040698 C36.1206787,12.3846512 36.1206787,22.7051938 33.1589167,34.2775898 C31.6825989,40.0459585 25.4444381,40.9121791 21.6724072,37.6699807 L14.9642812,31.9936822 L7.68351806,17.1501333 L6.0890481,11.2958055 Z" id="Fill-151" fill="#DADCE0"></path>
            <path d="M10.1397242,43.1506764 C10.1397242,43.1506764 8.77216482,39.2180621 10.9394055,35.3478586 C13.622656,37.239958 17.2003232,38.0139987 21.6724072,37.6699807 C20.2963814,25.2853295 15.1019283,16.4939378 6.0890481,11.2958055 C-2.68311673,18.2012806 -2.51799362,37.0280145 10.1397242,43.1506764 Z" id="Fill-154" fill="#121212"></path>
            <path d="M22.0131073,12.6276715 C22.0131073,14.1272464 20.7953244,15.3445544 19.2988963,15.3445544 C17.7973081,15.3445544 16.5795252,14.1272464 16.5795252,12.6276715 C16.5795252,11.1265486 17.7973081,9.91027263 19.2988963,9.91027263 C20.7953244,9.91027263 22.0131073,11.1265486 22.0131073,12.6276715" id="Fill-152" fill="#212123"></path>
            <path d="M75.5800738,100.103559 C75.5800738,105.320077 71.1939914,109.548404 65.7862098,109.548404 C60.3784282,109.548404 55.9923457,105.320077 55.9923457,100.103559 C55.9923457,94.8885887 60.3784282,90.6607784 65.7862098,90.6607784 C71.1939914,90.6607784 75.5800738,94.8885887 75.5800738,100.103559" id="Fill-155" fill="#ECB323"></path>
            <path d="M24.2524557,65.5354458 C39.7327466,94.7769833 68.973296,109.397752 111.974104,109.397752 L84.1095804,53.1507946 L34.2064164,30.5590983 L21.6724072,37.6699807 C21.2285052,38.3258796 17.4556061,52.6965182 24.2524557,65.5354458 Z" id="Fill-156" fill="#FCCD03"></path>
            <path d="M76.3694349,93.9169381 C82.0419342,93.9124144 91.8551717,82.3704612 97.0098228,81.0162598 C100.675231,80.0533041 99.8910265,89.6245899 103.011149,87.9340911 C109.636714,104.057359 117.165295,114.99765 117.165295,114.99765 C106.004005,111.462864 88.6711061,104.468661 76.3694349,93.9169381 Z" id="Fill-157" fill="#363538"></path>
            <path d="M103.011149,87.9340911 C95.5032081,92.002449 86.4781986,94.3725616 76.7720562,94.381334 C63.0565185,82.6288161 43.1437043,64.5905717 36.2962557,52.291581 C18.432,20.2081101 58.3866307,16.6232696 79.3933854,43.9943807 C88.8828037,56.3547786 97.040917,73.4110234 103.011149,87.9340911" id="Fill-158" fill="#095FB5"></path>
        </g>
    </g>
</svg>