<?xml version="1.0" encoding="UTF-8"?>
<svg width="115px" height="96px" viewBox="0 0 115 96" version="1.1" xmlns="http://www.w3.org/2000/svg" xmlns:xlink="http://www.w3.org/1999/xlink">
    <title>aws</title>
    <g id="aws" stroke="none" stroke-width="1" fill="none" fill-rule="evenodd">
        <g transform="translate(1.875873, 14.737000)" fill="#F59E0B">
            <path d="M31.3508463,24.161 C31.3508463,25.53 31.4988463,26.64 31.7578463,27.454 C32.0538463,28.268 32.4238463,29.156 32.9418463,30.118 C33.1268463,30.414 33.2008463,30.71 33.2008463,30.969 C33.2008463,31.339 32.9788463,31.709 32.4978463,32.079 L30.1668463,33.633 C29.8338463,33.855 29.5008463,33.966 29.2048463,33.966 C28.8348463,33.966 28.4648463,33.781 28.0948463,33.448 C27.5768463,32.893 27.1328463,32.301 26.7628463,31.709 C26.3928463,31.08 26.0228463,30.377 25.6158463,29.526 C22.7298463,32.93 19.1038463,34.632 14.7378463,34.632 C11.6298463,34.632 9.15084631,33.744 7.33784631,31.968 C5.52484631,30.192 4.59984631,27.824 4.59984631,24.864 C4.59984631,21.719 5.70984631,19.166 7.96684631,17.242 C10.2238463,15.318 13.2208463,14.356 17.0318463,14.356 C18.2898463,14.356 19.5848463,14.467 20.9538463,14.652 C22.3228463,14.837 23.7288463,15.133 25.2088463,15.466 L25.2088463,12.765 C25.2088463,9.953 24.6168463,7.992 23.4698463,6.845 C22.2858463,5.698 20.2878463,5.143 17.4388463,5.143 C16.1438463,5.143 14.8118463,5.291 13.4428463,5.624 C12.0738463,5.957 10.7418463,6.364 9.44684631,6.882 C8.85484631,7.141 8.41084631,7.289 8.15184631,7.363 C7.89284631,7.437 7.70784631,7.474 7.55984631,7.474 C7.04184631,7.474 6.78284631,7.104 6.78284631,6.327 L6.78284631,4.514 C6.78284631,3.922 6.85684631,3.478 7.04184631,3.219 C7.22684631,2.96 7.55984631,2.701 8.07784631,2.442 C9.37284631,1.776 10.9268463,1.221 12.7398463,0.777 C14.5528463,0.296 16.4768463,0.074 18.5118463,0.074 C22.9148463,0.074 26.1338463,1.073 28.2058463,3.071 C30.2408463,5.069 31.2768463,8.103 31.2768463,12.173 L31.2768463,24.161 L31.3508463,24.161 Z M16.3288463,29.785 C17.5498463,29.785 18.8078463,29.563 20.1398463,29.119 C21.4718463,28.675 22.6558463,27.861 23.6548463,26.751 C24.2468463,26.048 24.6908463,25.271 24.9128463,24.383 C25.1348463,23.495 25.2828463,22.422 25.2828463,21.164 L25.2828463,19.61 C24.2098463,19.351 23.0628463,19.129 21.8788463,18.981 C20.6948463,18.833 19.5478463,18.759 18.4008463,18.759 C15.9218463,18.759 14.1088463,19.24 12.8878463,20.239 C11.6668463,21.238 11.0748463,22.644 11.0748463,24.494 C11.0748463,26.233 11.5188463,27.528 12.4438463,28.416 C13.3318463,29.341 14.6268463,29.785 16.3288463,29.785 Z M46.0398463,33.781 C45.3738463,33.781 44.9298463,33.67 44.6338463,33.411 C44.3378463,33.189 44.0788463,32.671 43.8568463,31.968 L35.1618463,3.367 C34.9398463,2.627 34.8288463,2.146 34.8288463,1.887 C34.8288463,1.295 35.1248463,0.962 35.7168463,0.962 L39.3428463,0.962 C40.0458463,0.962 40.5268463,1.073 40.7858463,1.332 C41.0818463,1.554 41.3038463,2.072 41.5258463,2.775 L47.7418463,27.269 L53.5138463,2.775 C53.6988463,2.035 53.9208463,1.554 54.2168463,1.332 C54.5128463,1.11 55.0308463,0.962 55.6968463,0.962 L58.6568463,0.962 C59.3598463,0.962 59.8408463,1.073 60.1368463,1.332 C60.4328463,1.554 60.6918463,2.072 60.8398463,2.775 L66.6858463,27.565 L73.0868463,2.775 C73.3088463,2.035 73.5678463,1.554 73.8268463,1.332 C74.1228463,1.11 74.6038463,0.962 75.2698463,0.962 L78.7108463,0.962 C79.3028463,0.962 79.6358463,1.258 79.6358463,1.887 C79.6358463,2.072 79.5988463,2.257 79.5618463,2.479 C79.5248463,2.701 79.4508463,2.997 79.3028463,3.404 L70.3858463,32.005 C70.1638463,32.745 69.9048463,33.226 69.6088463,33.448 C69.3128463,33.67 68.8318463,33.818 68.2028463,33.818 L65.0208463,33.818 C64.3178463,33.818 63.8368463,33.707 63.5408463,33.448 C63.2448463,33.189 62.9858463,32.708 62.8378463,31.968 L57.1028463,8.103 L51.4048463,31.931 C51.2198463,32.671 50.9978463,33.152 50.7018463,33.411 C50.4058463,33.67 49.8878463,33.781 49.2218463,33.781 L46.0398463,33.781 Z M93.5848463,34.78 C91.6608463,34.78 89.7368463,34.558 87.8868463,34.114 C86.0368463,33.67 84.5938463,33.189 83.6318463,32.634 C83.0398463,32.301 82.6328463,31.931 82.4848463,31.598 C82.3368463,31.265 82.2628463,30.895 82.2628463,30.562 L82.2628463,28.675 C82.2628463,27.898 82.5588463,27.528 83.1138463,27.528 C83.3358463,27.528 83.5578463,27.565 83.7798463,27.639 C84.0018463,27.713 84.3348463,27.861 84.7048463,28.009 C85.9628463,28.564 87.3318463,29.008 88.7748463,29.304 C90.2548463,29.6 91.6978463,29.748 93.1778463,29.748 C95.5088463,29.748 97.3218463,29.341 98.5798463,28.527 C99.8378463,27.713 100.503846,26.529 100.503846,25.012 C100.503846,23.976 100.170846,23.125 99.5048463,22.422 C98.8388463,21.719 97.5808463,21.09 95.7678463,20.498 L90.4028463,18.833 C87.7018463,17.982 85.7038463,16.724 84.4828463,15.059 C83.2618463,13.431 82.6328463,11.618 82.6328463,9.694 C82.6328463,8.14 82.9658463,6.771 83.6318463,5.587 C84.2978463,4.403 85.1858463,3.367 86.2958463,2.553 C87.4058463,1.702 88.6638463,1.073 90.1438463,0.629 C91.6238463,0.185 93.1778463,0 94.8058463,0 C95.6198463,0 96.4708463,0.037 97.2848463,0.148 C98.1358463,0.259 98.9128463,0.407 99.6898463,0.555 C100.429846,0.74 101.132846,0.925 101.798846,1.147 C102.464846,1.369 102.982846,1.591 103.352846,1.813 C103.870846,2.109 104.240846,2.405 104.462846,2.738 C104.684846,3.034 104.795846,3.441 104.795846,3.959 L104.795846,5.698 C104.795846,6.475 104.499846,6.882 103.944846,6.882 C103.648846,6.882 103.167846,6.734 102.538846,6.438 C100.429846,5.476 98.0618463,4.995 95.4348463,4.995 C93.3258463,4.995 91.6608463,5.328 90.5138463,6.031 C89.3668463,6.734 88.7748463,7.807 88.7748463,9.324 C88.7748463,10.36 89.1448463,11.248 89.8848463,11.951 C90.6248463,12.654 91.9938463,13.357 93.9548463,13.986 L99.2088463,15.651 C101.872846,16.502 103.796846,17.686 104.943846,19.203 C106.090846,20.72 106.645846,22.459 106.645846,24.383 C106.645846,25.974 106.312846,27.417 105.683846,28.675 C105.017846,29.933 104.129846,31.043 102.982846,31.931 C101.835846,32.856 100.466846,33.522 98.8758463,34.003 C97.2108463,34.521 95.4718463,34.78 93.5848463,34.78 Z" id="Shape" fill-rule="nonzero"></path>
            <path d="M100.577846,52.762 C88.4048463,61.753 70.7188463,66.526 55.5118463,66.526 C34.1998463,66.526 14.9968463,58.645 0.49284631,45.547 C-0.65415369,44.511 0.38184631,43.105 1.75084631,43.919 C17.4388463,53.021 36.7898463,58.534 56.8068463,58.534 C70.3118463,58.534 85.1488463,55.722 98.8018463,49.95 C100.836846,49.025 102.575846,51.282 100.577846,52.762 Z" id="Path"></path>
            <path d="M105.646846,46.99 C104.092846,44.992 95.3608463,46.028 91.4018463,46.509 C90.2178463,46.657 90.0328463,45.621 91.1058463,44.844 C98.0618463,39.96 109.494846,41.366 110.826846,42.994 C112.158846,44.659 110.456846,56.092 103.944846,61.568 C102.945846,62.419 101.983846,61.975 102.427846,60.865 C103.907846,57.202 107.200846,48.951 105.646846,46.99 Z" id="Path"></path>
        </g>
    </g>
</svg>