<?xml version="1.0" encoding="UTF-8"?>
<svg width="72px" height="38px" viewBox="0 0 72 38" version="1.1" xmlns="http://www.w3.org/2000/svg" xmlns:xlink="http://www.w3.org/1999/xlink">
    <!-- Generator: Sketch 52.2 (67145) - http://www.bohemiancoding.com/sketch -->
    <title>icon</title>
    <desc>Created with Sketch.</desc>
    <g id="Page-1" stroke="none" stroke-width="1" fill="none" fill-rule="evenodd">
        <g id="Artboard" transform="translate(-913.000000, -369.000000)" fill="#FB6A67" fill-rule="nonzero">
            <path d="M978.296,385.056 L983.866,385.056 L984.516,381.649 L978.944,381.649 L979.894,376.666 L979.876,376.666 L975.65,379.98 L975.334,381.65 L970.958,381.65 L972.238,374.936 C972.538,372.403 976.398,373.169 976.971,373.313 L977.589,370.077 C970.652,367.411 968.627,374.935 968.627,374.935 L967.347,381.649 L967.327,381.649 L962.981,385.055 L966.699,385.055 L962.612,406.5 L966.224,406.5 L970.308,385.056 L974.684,385.056 L973.084,393.45 C972.068,399.56 978.19,398.892 980.144,398.5 L980.754,395.298 C976.081,396.352 976.696,393.448 976.696,393.448 L978.296,385.056 Z M956.93,393.858 C953.172,397.715 950.765,395.188 950.765,395.188 C949.135,393.602 950.937,391.973 950.937,391.973 C953.423,389.703 957.227,392.198 957.227,392.198 L956.931,393.858 L956.93,393.858 Z M957.762,389.206 C957.762,389.206 952.587,386.55 948.965,389.506 C948.965,389.506 946.843,390.922 946.843,393.751 C946.843,396.581 949.437,398.104 949.437,398.104 C949.437,398.104 953.337,400.162 956.392,396.872 L956.054,398.404 L959.471,398.404 L961.618,388.22 C963.228,378.17 951.256,381.732 951.256,381.732 L950.604,385.345 C959.43,381.499 957.944,388.2 957.944,388.2 L957.764,389.208 L957.762,389.206 Z M935.16,374.496 C930.59,371.046 923.682,372.49 919.733,377.722 C915.785,382.954 916.289,389.992 920.86,393.442 C924.293,396.032 929.038,395.855 932.862,393.395 L935.332,395.331 L935.337,395.343 C930.175,399.387 923.291,399.968 918.432,396.301 C912.48,391.808 911.822,382.647 916.964,375.837 C922.104,369.026 931.094,367.145 937.046,371.637 C937.508,371.985 937.934,372.364 938.331,372.767 L938.251,372.871 L935.659,374.907 C935.499,374.765 935.334,374.627 935.161,374.497 L935.16,374.496 Z M948.196,381.659 L947.602,385.296 C947.602,385.296 943.822,384.33 942.292,387.436 L940.226,398.433 L936.81,398.433 L939.86,381.718 L943.202,381.716 L942.879,383.241 C942.879,383.241 945.409,381.687 948.195,381.657 L948.196,381.659 Z" id="icon"></path>
        </g>
    </g>
</svg>
