<?xml version="1.0" encoding="UTF-8"?>
<svg width="64px" height="44px" viewBox="0 0 64 44" version="1.1" xmlns="http://www.w3.org/2000/svg" xmlns:xlink="http://www.w3.org/1999/xlink">
    <!-- Generator: Sketch 52.2 (67145) - http://www.bohemiancoding.com/sketch -->
    <title>icon</title>
    <desc>Created with Sketch.</desc>
    <g id="Page-1" stroke="none" stroke-width="1" fill="none" fill-rule="evenodd">
        <g id="Artboard" transform="translate(-680.000000, -258.000000)" fill="#E6505A" fill-rule="nonzero">
            <path d="M742.95,278.325 C742.537,277.852 736.75,270.633 735.733,269.412 C734.716,268.19 734.213,268.427 733.59,268.496 C732.968,268.566 725.69,269.816 724.792,269.953 C723.892,270.091 723.409,270.436 723.932,271.165 L730.272,280.118 L711.135,284.668 L695.918,259.326 C695.316,258.43 695.188,258.076 693.825,258.174 C692.462,258.272 681.885,259.159 681.135,259.159 C680.385,259.159 679.555,259.552 680.305,261.325 C681.058,263.1 693.036,288.883 693.37,289.592 C693.87833,290.874353 695.308363,291.526696 696.61,291.07 C698.693,290.568 705.92,288.686 709.87,287.652 C711.955,291.424 716.21,299.067 717,300.162 C718.047,301.628 718.778,301.382 720.388,300.889 C721.652,300.504 740.138,293.886 740.928,293.551 C741.718,293.216 742.27,292.971 741.708,292.133 C741.302,291.561 736.434,285.071 733.886,281.713 L742.506,279.417 C743.266,279.171 743.376,278.757 742.951,278.324 L742.95,278.325 Z M708.173,285.415 L696.659,288.155 C696.085,288.283 696.085,288.223 696.016,288.025 C695.947,287.83 683.277,261.76 683.1,261.436 C682.923,261.11 682.933,260.854 683.1,260.854 C683.27,260.854 693.222,259.968 693.568,259.948 C693.913,259.928 693.884,260.008 694.012,260.224 L708.292,284.846 C708.548,285.24 708.637,285.299 708.172,285.416 L708.173,285.415 Z M738.39,291.06 C738.557,291.326 738.735,291.503 738.192,291.69 C737.649,291.877 720.052,297.816 719.716,297.964 C719.38,298.112 719.104,298.161 718.669,297.521 C718.234,296.881 712.507,287.003 712.507,287.003 L731.15,282.167 C731.694,281.99 731.822,282.059 732.06,282.384 C732.296,282.709 738.26,290.804 738.39,291.071 L738.39,291.061 L738.39,291.06 Z M739.584,277.852 C739.169,277.952 732.336,279.645 732.336,279.645 L726.736,271.982 C726.579,271.756 726.451,271.539 726.846,271.49 C727.241,271.44 733.6,270.288 733.886,270.23 C734.226,270.088 734.616,270.235 734.776,270.564 C735.13,271.047 739.969,277.164 740.156,277.399 C740.344,277.635 739.999,277.773 739.584,277.861 L739.584,277.851 L739.584,277.852 Z" id="icon"></path>
        </g>
    </g>
</svg>