<?xml version="1.0" encoding="UTF-8"?>
<svg width="85px" height="96px" viewBox="0 0 85 96" version="1.1" xmlns="http://www.w3.org/2000/svg" xmlns:xlink="http://www.w3.org/1999/xlink">
    <title>nodejs</title>
    <g id="nodejs" stroke="none" stroke-width="1" fill="none" fill-rule="evenodd">
        <path d="M42.141713,95.1395098 C40.8704198,95.1395098 39.6078341,94.806013 38.4932756,94.1642712 L26.880099,87.2888387 C25.1455674,86.3188246 25.9919352,85.9757495 26.5640172,85.7780896 C28.8767259,84.9682932 29.3460595,84.7854359 31.8146324,83.3835304 C32.0741155,83.2355031 32.4137075,83.287748 32.6792859,83.4444828 L41.600978,88.7386355 C41.9231551,88.9127852 42.3802982,88.9127852 42.678965,88.7386355 L77.4653793,68.6591683 C77.7875563,68.4763111 77.996536,68.1018891 77.996536,67.7187596 L77.996536,27.5772403 C77.996536,27.1766959 77.7875563,26.8196889 77.4584133,26.6194167 L42.685931,6.55736452 C42.363754,6.36579978 41.9370871,6.36579978 41.61491,6.55736452 L6.84939377,26.6194167 C6.51241399,26.8109814 6.29820979,27.1854034 6.29820979,27.5685329 L6.29820979,67.7100521 C6.29820979,68.0931816 6.5071895,68.4588961 6.83807404,68.6417533 L16.3640658,74.1448857 C21.5363136,76.7310096 24.6971317,73.6833888 24.6971317,70.6183531 L24.6971317,30.9992831 C24.6971317,30.4332964 25.1412136,29.997922 25.7072003,29.997922 L30.1131892,29.997922 C30.661761,29.997922 31.1145503,30.4332964 31.1145503,30.9992831 L31.1145503,70.6357681 C31.1145503,77.5320985 27.3529156,81.4940055 20.8135921,81.4940055 C18.8021624,81.4940055 17.2173996,81.4940055 12.7939958,79.3171335 L3.66854844,74.0578108 C1.41330907,72.7516876 0.020111001,70.313591 0.020111001,67.7100521 L0.020111001,27.5685329 C0.020111001,24.9562865 1.41330907,22.5181899 3.66854844,21.2294817 L38.4897926,1.14130704 C40.692787,-0.103863735 43.618503,-0.103863735 45.8040825,1.14130704 L80.5817892,21.2381891 C82.8283211,22.5356048 84.2302266,24.964994 84.2302266,27.5772403 L84.2302266,67.7187596 C84.2302266,70.3222985 82.8283211,72.7516876 80.5817892,74.0578108 L45.8040825,94.1459854 C44.689524,94.7903396 43.4269383,95.1212241 42.13823,95.1212241" id="Path" fill="#10B981" fill-rule="nonzero"></path>
        <path d="M52.8867531,67.4793037 C37.6660642,67.4793037 34.4747699,60.4924154 34.4747699,54.632276 C34.4747699,54.0749968 34.9240763,53.6309149 35.4822263,53.6309149 L39.97529,53.6309149 C40.4716169,53.6309149 40.8895763,53.9922757 40.9679437,54.4825072 C41.6471277,59.0609044 43.6672649,61.3701302 52.8710796,61.3701302 C60.2027845,61.3701302 63.3200651,59.713966 63.3200651,55.8260726 C63.3200651,53.5882482 62.4319014,51.925118 51.0425072,50.8105596 C41.5165154,49.8701509 35.6302536,47.7716463 35.6302536,40.1525944 C35.6302536,33.1343591 41.5513454,28.9547649 51.4691741,28.9547649 C62.6060511,28.9547649 68.1265985,32.8208896 68.8231975,41.127833 C68.84932,41.4151801 68.7448301,41.6938197 68.5532654,41.9027995 C68.3617006,42.1030717 68.0917685,42.2249765 67.8131289,42.2249765 L63.2939427,42.2249765 C62.8237383,42.2249765 62.4144864,41.894092 62.318704,41.4413026 C61.230268,36.6260618 58.6006067,35.0848364 51.4517591,35.0848364 C43.4495777,35.0848364 42.5178765,37.8712326 42.5178765,39.9610297 C42.5178765,42.4949086 43.61502,43.2350451 54.412305,44.6630731 C65.1051002,46.0823937 70.1815656,48.0851159 70.1815656,55.5996779 C70.1815656,63.1751924 63.8599294,67.5202289 52.8362497,67.5202289" id="Shape" fill="#10B981" fill-rule="nonzero"></path>
    </g>
</svg>