<?xml version="1.0" encoding="UTF-8"?>
<svg width="77px" height="37px" viewBox="0 0 77 37" version="1.1" xmlns="http://www.w3.org/2000/svg" xmlns:xlink="http://www.w3.org/1999/xlink">
    <!-- Generator: Sketch 52.2 (67145) - http://www.bohemiancoding.com/sketch -->
    <title>icon</title>
    <desc>Created with Sketch.</desc>
    <g id="Page-1" stroke="none" stroke-width="1" fill="none" fill-rule="evenodd">
        <g id="Artboard" transform="translate(-1017.000000, -604.000000)" fill="#595ED0" fill-rule="nonzero">
            <path d="M1017.01,641 L1022.795,611.707 L1036.175,611.707 C1041.96,612.069 1044.855,614.962 1044.855,620.025 C1044.855,628.705 1037.983,633.767 1031.835,633.405 L1025.325,633.405 L1023.88,641 L1017.01,641 Z M1026.772,627.98 L1031.112,627.98 C1034.367,627.62 1037.26,626.534 1037.622,620.386 C1037.622,618.216 1035.812,617.132 1033.282,617.132 L1028.582,617.132 L1026.772,627.982 L1026.772,627.98 Z M1043.509,633.405 L1049.294,604.115 L1056.164,604.115 L1054.719,611.707 L1061.229,611.707 C1067.014,612.069 1069.184,614.962 1068.461,618.579 L1065.93,633.404 L1058.698,633.404 L1061.228,620.024 C1061.591,618.216 1061.591,617.131 1059.06,617.131 L1053.635,617.131 L1050.38,633.405 L1043.51,633.405 L1043.509,633.405 Z M1065.466,641 L1071.252,611.707 L1084.632,611.707 C1090.418,612.069 1093.312,614.962 1093.312,620.025 C1093.312,628.705 1086.44,633.767 1080.292,633.405 L1073.782,633.405 L1072.34,641 L1065.47,641 L1065.466,641 Z M1075.23,627.98 L1079.57,627.98 C1082.825,627.62 1085.718,626.534 1086.08,620.386 C1086.08,618.216 1084.272,617.132 1081.74,617.132 L1077.04,617.132 L1075.23,627.982 L1075.23,627.98 Z" id="icon"></path>
        </g>
    </g>
</svg>