<?xml version="1.0" encoding="UTF-8"?>
<svg width="53px" height="48px" viewBox="0 0 53 48" version="1.1" xmlns="http://www.w3.org/2000/svg" xmlns:xlink="http://www.w3.org/1999/xlink">
    <!-- Generator: Sketch 52.2 (67145) - http://www.bohemiancoding.com/sketch -->
    <title>icon</title>
    <desc>Created with Sketch.</desc>
    <g id="Page-1" stroke="none" stroke-width="1" fill="none" fill-rule="evenodd">
        <g id="Artboard" transform="translate(-686.000000, -116.000000)" fill="#FA8E44">
            <path d="M725.738,160.384 C719.568,163.97 711.084,164.339 702.548,160.659 C695.64,157.7 689.906,152.525 686.23,146.61 C687.996,148.09 690.054,149.273 692.26,150.308 C701.074,154.463 709.886,154.178 716.086,150.318 L716.078,150.308 C707.256,143.505 699.758,134.633 694.171,127.388 C692.993,126.204 692.111,124.725 691.229,123.394 C697.992,129.604 708.725,137.442 712.549,139.661 C704.46,131.085 697.255,120.437 697.55,120.733 C710.342,133.746 722.25,141.14 722.25,141.14 C722.646,141.363 722.95,141.55 723.195,141.715 C723.452,141.055 723.677,140.37 723.868,139.661 C725.926,132.121 723.574,123.543 718.428,116.445 C730.338,123.691 737.395,137.295 734.454,148.682 C734.376,148.992 734.294,149.294 734.204,149.592 L734.307,149.718 C740.187,157.112 738.571,164.95 737.837,163.471 C734.645,157.193 728.739,159.111 725.737,160.385 L725.738,160.384 Z" id="icon"></path>
        </g>
    </g>
</svg>