<?xml version="1.0" encoding="UTF-8"?>
<svg width="107px" height="96px" viewBox="0 0 107 96" version="1.1" xmlns="http://www.w3.org/2000/svg" xmlns:xlink="http://www.w3.org/1999/xlink">
    <title>websockets</title>
    <g id="websockets" stroke="none" stroke-width="1" fill="none" fill-rule="evenodd">
        <g id="websocket" transform="translate(-0.000000, 8.000000)" fill="#EF4444" fill-rule="nonzero">
            <path d="M80.139507,60.2358085 L93.3739361,60.2358085 L93.3739361,28.4590198 L78.4633404,13.5488405 L69.1051248,22.907056 L80.139507,33.9414383 L80.139507,60.2358085 L80.139507,60.2358085 Z M93.408917,66.8700971 L47.2458291,66.8700971 L36.2110304,55.8361313 L40.8905546,51.1570235 L50.0043206,60.2707894 L68.7557325,60.2707894 L50.2837511,41.7638271 L54.9978397,37.0497384 L73.4698212,55.5221363 L73.4698212,36.7698915 L64.3910362,27.6911064 L69.0351631,23.0465631 L46.0935426,0 L0,0 L13.1994482,13.1994482 L13.1994482,13.2344291 L40.5761433,13.2344291 L50.2487702,22.907056 L36.1065043,37.049322 L26.4338773,27.376695 L26.4338773,19.8691341 L13.1994482,19.8691341 L13.1994482,32.8591135 L36.1065043,55.7661695 L26.7828531,65.0894042 L41.6934489,80 L106.608365,80 L93.408917,66.8700971 Z" id="Shape"></path>
        </g>
    </g>
</svg>