<?xml version="1.0" encoding="UTF-8"?>
<svg width="48px" height="48px" viewBox="0 0 48 48" version="1.1" xmlns="http://www.w3.org/2000/svg" xmlns:xlink="http://www.w3.org/1999/xlink">
    <!-- Generator: Sketch 52.2 (67145) - http://www.bohemiancoding.com/sketch -->
    <title>icon</title>
    <desc>Created with Sketch.</desc>
    <g id="Page-1" stroke="none" stroke-width="1" fill="none" fill-rule="evenodd">
        <g id="Artboard" transform="translate(-1114.000000, -179.000000)" fill="#5A95F7" fill-rule="nonzero">
            <path d="M1156.505,192.51 C1158.2268,195.651636 1159.12667,199.177479 1159.121,202.76 C1159.121,210.64 1154.851,217.52 1148.501,221.224 L1155.025,202.359 C1156.245,199.311 1156.649,196.874 1156.649,194.707 C1156.6506,193.97229 1156.60283,193.238303 1156.506,192.51 L1156.505,192.51 Z M1140.705,192.744 C1141.99,192.676 1143.148,192.541 1143.148,192.541 C1144.3,192.406 1144.164,190.714 1143.012,190.781 C1143.012,190.781 1139.552,191.053 1137.318,191.053 C1135.218,191.053 1131.692,190.781 1131.692,190.781 C1130.54,190.714 1130.405,192.474 1131.557,192.541 C1131.557,192.541 1132.647,192.677 1133.797,192.745 L1137.127,201.865 L1132.45,215.885 L1124.67,192.745 C1125.958,192.677 1127.116,192.542 1127.116,192.542 C1128.266,192.407 1128.13,190.715 1126.979,190.782 C1126.979,190.782 1123.519,191.054 1121.285,191.054 C1120.885,191.054 1120.412,191.044 1119.91,191.028 C1123.73,185.228 1130.296,181.4 1137.76,181.4 C1143.32,181.4 1148.384,183.526 1152.185,187.008 C1152.093,187.003 1152.003,186.991 1151.908,186.991 C1149.81,186.991 1148.321,188.818 1148.321,190.781 C1148.321,192.541 1149.338,194.031 1150.421,195.791 C1151.233,197.214 1152.181,199.041 1152.181,201.683 C1152.181,203.511 1151.478,205.633 1150.556,208.589 L1148.426,215.709 L1140.706,192.745 L1140.705,192.744 Z M1137.76,224.124 C1135.663,224.124 1133.64,223.814 1131.725,223.252 L1138.135,204.628 L1144.701,222.618 C1144.745,222.723 1144.798,222.82 1144.854,222.912 C1142.57531,223.714338 1140.17682,224.123499 1137.761,224.122 L1137.76,224.124 Z M1116.398,202.758 C1116.398,199.66 1117.062,196.72 1118.248,194.064 L1128.438,221.984 C1121.311,218.521 1116.398,211.214 1116.398,202.757 L1116.398,202.758 Z M1137.76,179 C1124.66,179 1114,189.658 1114,202.76 C1114,215.86 1124.66,226.52 1137.76,226.52 C1150.86,226.52 1161.52,215.86 1161.52,202.76 C1161.52,189.657 1150.86,179 1137.76,179 Z" id="icon"></path>
        </g>
    </g>
</svg>