<?xml version="1.0" encoding="UTF-8"?>
<svg width="942px" height="96px" viewBox="0 0 942 96" version="1.1" xmlns="http://www.w3.org/2000/svg" xmlns:xlink="http://www.w3.org/1999/xlink">
    <!-- Generator: Sketch 52.4 (67378) - http://www.bohemiancoding.com/sketch -->
    <title>customers</title>
    <desc>Created with Sketch.</desc>
    <g id="customers" stroke="none" stroke-width="1" fill="none" fill-rule="evenodd">
        <path d="M214.141124,61.2967838 C215.141601,61.2967838 215.887826,60.7982165 216.638249,60.0576898 L229.358449,47.3805838 C231.855312,44.8950716 234.595144,43.6483919 238.338602,43.6483919 L262.035973,43.6483919 L253.305611,34.9451757 L231.101215,34.9451757 C229.854621,34.9451757 229.112069,35.1944593 228.361908,35.9423102 L215.637772,48.6194162 C213.144583,51.1125141 210.405013,52.3516081 206.661293,52.3516081 L182.963922,52.3516081 L191.694284,61.2967838 L214.141124,61.2967838 Z M222.875159,66.2678081 C220.38197,68.7611676 217.384475,70 214.141124,70 L188.200617,70 L166,48.1284347 L188.200617,26 L200.674437,26 L182.963922,43.6483919 L206.661293,43.6483919 C207.657834,43.6483919 208.654375,43.3991083 209.404799,42.6512574 L222.124736,29.7246061 C224.617925,27.239094 227.611485,26 230.855098,26 L257.045658,26 L279,48.1284347 L257.045658,70 L244.325458,70 L262.035973,52.3516081 L238.338602,52.3516081 C237.338388,52.3516081 236.595573,52.8501754 235.84515,53.3414185 L222.875159,66.2678081 Z" id="ns" fill="#6b7280" fill-rule="nonzero"></path>
        <path d="M61.8829219,33.3689351 C61.0448594,34.491013 59.1617031,36.3727792 55.9626563,36.3727792 C51.8982187,36.3727792 48.8325,33.1835844 48.8325,28.9554286 C48.8325,24.7962597 51.8824844,21.5389091 55.7755,21.5389091 C57.6603125,21.5389091 59.4623125,22.3293506 60.8494219,23.7664416 L61.0912344,24.0157922 L64.2670938,20.5373506 L64.0310781,20.3004675 C61.8895469,18.1527273 58.96875,16.969974 55.8069688,16.969974 C49.0494687,16.969974 43.9531875,22.1232208 43.9531875,28.9554286 C43.9531875,35.7876364 49.0759688,40.9408831 55.8699062,40.9408831 C59.7190313,40.9408831 63.1607188,39.3134545 65.3105312,36.4758442 L65.5034844,36.2223377 L62.1007187,33.0771948 L61.8829219,33.3689351 Z M67.1001094,24.246026 L71.8237344,24.246026 L71.8237344,40.6175584 L67.1009375,40.6175584 L67.1009375,24.2451948 L67.1001094,24.246026 Z M69.4619219,22.0558961 C71.1363906,22.0558961 72.4481406,20.726026 72.4481406,19.0271169 C72.4481406,17.3298701 71.1363906,16 69.4610938,16 C67.7857969,16 66.474875,17.3298701 66.474875,19.0271169 C66.474875,20.726026 67.786625,22.0558961 69.4610938,22.0558961 L69.4619219,22.0558961 Z M77.75725,33.6440519 C77.75725,35.9347532 78.1133438,37.3992727 78.9480938,38.5396364 C80.0851094,40.1105455 81.990625,40.9408831 84.4592656,40.9408831 C85.2774531,40.9408831 86.5188125,40.8095584 87.0985,40.5976104 L87.3659844,40.5003636 L86.6289531,36.302961 L86.2919063,36.3810909 C86.0194531,36.4425974 85.2683437,36.534026 84.7093594,36.534026 C83.8729531,36.534026 83.2642813,36.3129351 82.9015625,35.8798961 C82.60675,35.5183377 82.480875,34.9955325 82.480875,34.1294545 L82.480875,28.4908052 L87.476125,28.4908052 L87.476125,24.246026 L82.480875,24.246026 L82.480875,19.8807273 L77.75725,19.8807273 L77.75725,24.2451948 L73.5420938,24.2451948 L73.5420938,28.489974 L77.75725,28.489974 L77.75725,33.6432208 L77.75725,33.6440519 Z M91.2855,48.379013 L96.2650156,48.379013 L107,24.2451948 L101.989016,24.2451948 L98.1009688,33.1885714 L93.8866406,24.2451948 L88.6777344,24.2451948 L95.6215625,38.6934026 L91.2855,48.3781818 L91.2855,48.379013 Z M16.1439219,64.9217662 L5.8793125,64.9217662 L5.8793125,56.3532468 L1,56.3532468 L1,79.6758442 L5.8793125,79.6758442 L5.8793125,69.4907013 L16.1439219,69.4907013 L16.1439219,79.6758442 L21.0232344,79.6758442 L21.0232344,56.3524156 L16.1439219,56.3524156 L16.1439219,64.9217662 Z M34.92,73.7138701 C34.5191875,74.2158961 33.376375,75.4318961 31.7234375,75.4318961 C31.2456094,75.4318961 30.3454375,75.3196883 29.6937031,74.5774545 C29.3475469,74.1718442 29.0270625,73.5925195 29.0270625,72.1213506 L29.0270625,63.3051429 L24.3034375,63.3051429 L24.3034375,71.9592727 C24.3034375,74.2167273 24.8284688,75.9796364 25.9075156,77.3502338 C27.2142074,79.0149949 29.2061346,79.9905964 31.3176563,80 C32.7113906,80 33.9966406,79.5827532 35.0765156,78.7864935 L35.0765156,79.6758442 L39.643625,79.6758442 L39.643625,63.305974 L34.92,63.305974 L34.92,73.7147013 L34.92,73.7138701 Z M47.8023125,69.262961 C48.6329219,68.1732987 49.8709688,67.5507532 51.2166719,67.5507532 C53.53625,67.5507532 54.7875469,69.5887792 54.7875469,71.5071169 C54.7875469,73.7811948 53.2472344,75.4318961 51.1230938,75.4318961 C49.8060923,75.4366914 48.568413,74.8007076 47.8023125,73.7255065 L47.8023125,69.262961 Z M51.7483281,62.9818182 C50.2577031,62.9818182 48.9327031,63.3616623 47.8023125,64.113039 L47.8023125,56.0290909 L43.0786875,56.0290909 L43.0786875,79.6758442 L47.646625,79.6758442 L47.646625,78.7698701 C48.7811563,79.5869091 50.084625,80 51.5297031,80 C53.8236094,80 56.0545781,78.9635325 57.4955156,77.2288831 C58.7956719,75.6696104 59.512,73.6374026 59.512,71.5071169 C59.512,66.7262338 56.1009531,62.9818182 51.7483281,62.9818182 Z M104.011297,53.8938182 C102.719422,53.8938182 101.668531,54.9826494 101.668531,56.32 L101.668531,69.1565714 L73.3532813,69.1565714 C72.0614063,69.1565714 71.0113438,70.2445714 71.0113438,71.5819221 C71.0113438,72.9201039 72.0622344,74.0072727 73.3532813,74.0072727 L106.353234,74.0072727 L106.353234,56.32 C106.353234,54.9818182 105.302344,53.8938182 104.011297,53.8938182 Z M3.41564062,46.3384935 C4.70751562,46.3384935 5.75757812,45.2513247 5.75757812,43.9131429 L5.75757812,31.0774026 L34.0728281,31.0774026 C35.3647031,31.0774026 36.4147656,29.9894026 36.4147656,28.6520519 C36.4147656,27.3138701 35.3647031,26.2267013 34.0728281,26.2267013 L1.072875,26.2267013 L1.072875,43.913974 C1.072875,45.2521558 2.12459375,46.3401558 3.41564062,46.3401558 L3.41564062,46.3384935 Z" id="Shape" fill="#6b7280" fill-rule="nonzero"></path>
        <path d="M363.580645,32.9936108 C361.351908,30.3925859 358.041304,28.744186 354.345308,28.744186 C347.634076,28.744186 342.193548,34.1792409 342.193548,40.8837209 C342.193548,47.5882008 347.634076,53.0232558 354.345308,53.0232558 C358.041304,53.0232558 361.351908,51.3748561 363.580645,48.7738311 C365.809382,51.3748561 369.119986,53.0232558 372.815983,53.0232558 C379.527213,53.0232558 384.967742,47.5882008 384.967742,40.8837209 C384.967742,34.1792409 379.527213,28.744186 372.815983,28.744186 C369.119986,28.744186 365.809382,30.3925859 363.580645,32.9936108 Z M388.08606,84 L371.525856,84 C363.139143,83.7082236 355.734308,80.8790739 349.311352,75.5125512 C342.888396,70.1460282 339.51313,63.6547649 339.185553,56.0387609 L339.185553,44.7948662 C338.395184,44.0107991 338,42.7029243 338,40.8712412 C338,39.0395581 338.395184,37.8147003 339.185553,37.1966677 C338.395184,21.5057855 338,13.3350294 338,12.6843991 C338,11.7084538 339.185553,12.1743306 340.092562,12.6843991 C340.999572,13.1944676 346.148596,20.9354442 357.584431,20.1757878 C369.020266,19.4161314 367.412336,20.1757878 373.578392,20.1757878 C379.744448,20.1757878 386.232485,13.055927 386.975837,12.6843991 C387.719188,12.3128712 388.567128,11.3503701 388.567128,12.6843991 C388.567128,13.5737518 388.567128,21.3726723 388.567128,36.0811608 C389.522377,37.412367 390,39.0090605 390,40.8712412 C390,42.7334218 389.522377,44.4857919 388.567128,46.1283518 L388.567128,83.5115323 C388.567128,83.7813057 388.351748,84 388.08606,84 Z M363.86585,50.5116279 C362.387031,52.090629 360.474759,53.0613557 358.129032,53.4238076 L363.86585,59.7209302 L369.870968,53.4238076 C367.883519,53.4238076 365.881814,52.4530809 363.86585,50.5116279 Z M349.46084,38.4834059 C349.812811,39.0342542 350.430382,39.3995771 351.133431,39.3995771 C352.228283,39.3995771 353.115836,38.5136121 353.115836,37.4207188 C353.115836,36.7713419 352.802484,36.1950214 352.318481,35.8342032 C352.947628,35.58115 353.634938,35.4418605 354.354839,35.4418605 C357.365681,35.4418605 359.806452,37.8782645 359.806452,40.8837209 C359.806452,43.8891773 357.365681,46.3255814 354.354839,46.3255814 C351.343996,46.3255814 348.903226,43.8891773 348.903226,40.8837209 C348.903226,40.0221951 349.103785,39.2074286 349.46084,38.4834059 Z M367.912453,38.4834059 C368.264424,39.0342542 368.881995,39.3995771 369.585044,39.3995771 C370.679896,39.3995771 371.567448,38.5136121 371.567448,37.4207188 C371.567448,36.7713419 371.254096,36.1950214 370.770094,35.8342032 C371.399241,35.58115 372.086551,35.4418605 372.806452,35.4418605 C375.817294,35.4418605 378.258065,37.8782645 378.258065,40.8837209 C378.258065,43.8891773 375.817294,46.3255814 372.806452,46.3255814 C369.795609,46.3255814 367.354839,43.8891773 367.354839,40.8837209 C367.354839,40.0221951 367.555398,39.2074286 367.912453,38.4834059 Z" id="Path-Copy" fill="#6b7280" fill-rule="nonzero"></path>
        <path d="M499.798519,8.80592364 L505.143166,14.6390596 C506.350022,15.9321193 508.102836,16.1332619 508.102836,16.1332619 L515.918663,17.0240364 C517.700213,17.2251791 518.073763,18.9492587 518.073763,18.9492587 L519.797843,26.6501476 C520.200128,28.3742272 521.608126,29.4374096 521.608126,29.4374096 L527.987221,34.1498939 C529.395219,35.1843417 528.877995,36.8796866 528.877995,36.8796866 L526.493018,44.4081676 C525.975794,46.1035124 526.665426,47.7126535 526.665426,47.7126535 L529.797504,54.9537878 C530.487136,56.5629286 529.194077,57.7697845 529.194077,57.7697845 L523.36094,63.1144312 C522.067881,64.3212869 521.866738,66.0741012 521.866738,66.0741012 L520.975963,73.9186633 C520.774821,75.7002122 519.050742,76.0737629 519.050742,76.0737629 L511.349853,77.7978424 C509.625773,78.2001279 508.56259,79.6081262 508.56259,79.6081262 L503.850106,85.9584859 C502.815658,87.3664843 501.120313,86.8492604 501.120313,86.8492604 L493.591833,84.4930183 C491.925223,83.9470597 490.287347,84.6654262 490.287347,84.6654262 L483.046212,87.7975042 C481.437072,88.4871361 480.230216,87.1940764 480.230216,87.1940764 L474.885569,81.3609403 C473.678713,80.0678805 471.925899,79.8667381 471.925899,79.8667381 L464.081337,78.9759635 C462.299787,78.774821 461.926237,77.0507414 461.926237,77.0507414 L460.202157,69.3498525 C459.799872,67.6257728 458.391874,66.5625904 458.391874,66.5625904 L452.041514,61.8213715 C450.633516,60.7869237 451.150739,59.0915788 451.150739,59.0915788 L453.506982,51.5630978 C454.05294,49.8677529 453.334573,48.2586118 453.334573,48.2586118 L450.202496,41.0174776 C449.512864,39.4083366 450.805923,38.2014809 450.805923,38.2014809 L456.63906,32.8568342 C457.932119,31.6499785 458.133262,29.8971642 458.133262,29.8971642 L459.024037,22.0813366 C459.225179,20.2997877 460.949258,19.9262371 460.949258,19.9262371 L468.650147,18.2021575 C470.374227,17.7998723 471.437409,16.3918739 471.437409,16.3918739 L476.178628,10.041514 C477.213077,8.63351569 478.908421,9.15073955 478.908421,9.15073955 L486.436902,11.5069817 C488.132247,12.0242056 489.741388,11.3345737 489.741388,11.3345737 L496.982523,8.20249578 C498.591663,7.51286393 499.798519,8.80592364 499.798519,8.80592364 Z M497.902032,18.3458308 C497.902032,18.3458308 496.465298,16.7654245 494.482607,17.6274643 L490.287347,19.4377478 C490.287347,19.4377478 488.33339,20.2997877 486.293229,19.6388905 L481.954295,18.2883615 C481.954295,18.2883615 479.914134,17.6561989 478.649809,19.3802785 L475.920017,23.0295803 C475.920017,23.0295803 474.655692,24.75366 472.558061,25.2134145 L468.104189,26.190393 C468.104189,26.190393 466.006559,26.6501476 465.776682,28.7765124 L465.259457,33.3165888 C465.259457,33.3165888 465.02958,35.4429536 463.449174,36.8796866 L460.087219,39.9542952 C460.087219,39.9542952 458.506812,41.3910282 459.368852,43.3737198 L461.179136,47.56898 C461.179136,47.56898 462.041176,49.522937 461.380278,51.5630978 L460.001015,55.9020315 C460.001015,55.9020315 459.368852,57.9421923 461.064197,59.2065174 L464.713499,61.9075755 C464.713499,61.9075755 466.437578,63.1719004 466.897333,65.2695307 L467.874312,69.723403 C467.874312,69.723403 468.334067,71.8210333 470.460431,72.0509106 L475.000507,72.5681344 C475.000507,72.5681344 477.126872,72.7980117 478.563605,74.3784179 L481.638214,77.7403733 C481.638214,77.7403733 483.074947,79.3207794 485.057638,78.4587397 L489.252899,76.6484562 C489.252899,76.6484562 491.206856,75.7864163 493.247017,76.4473135 L497.58595,77.826577 C497.58595,77.826577 499.626111,78.4587397 500.890436,76.73466 L503.591494,73.0853582 C503.591494,73.0853582 504.855819,71.3612787 506.953449,70.9015241 L511.407322,69.9245458 C511.407322,69.9245458 513.504952,69.4647911 513.734829,67.3384263 L514.252053,62.7983499 C514.252053,62.7983499 514.48193,60.671985 516.062337,59.235252 L519.424292,56.1606434 C519.424292,56.1606434 521.004698,54.7239104 520.142658,52.7412188 L518.447313,48.5746933 C518.447313,48.5746933 517.585274,46.6207363 518.246171,44.5805754 L519.625434,40.2416417 C519.625434,40.2416417 520.257597,38.2014809 518.533518,36.9371558 L514.884216,34.2360977 C514.884216,34.2360977 513.160136,32.9717728 512.700382,30.8741426 L511.723403,26.4202703 C511.723403,26.4202703 511.263648,24.3226401 509.137283,24.0927628 L504.597208,23.5755389 C504.597208,23.5755389 502.470843,23.3456617 501.034109,21.7652553 L497.902032,18.3458308 Z M475.948751,39.0922554 L475.948751,51.5056286 L471.552348,51.5056286 L471.552348,39.0922554 L475.948751,39.0922554 Z M473.764917,31.8798558 C475.115446,31.8798558 476.236097,32.9717728 476.236097,34.3510363 C476.236097,35.7015655 475.115446,36.8222171 473.764917,36.8222171 C472.414388,36.8222171 471.293737,35.7015655 471.293737,34.3510363 C471.293737,33.0005074 472.414388,31.8798558 473.764917,31.8798558 Z M478.707278,51.5056286 L478.707278,31.4201012 L483.103682,31.4201012 L483.103682,40.2703765 C484.051926,39.2071941 485.517393,38.6612355 486.954126,38.6612355 C490.632163,38.6612355 493.160813,41.7071095 493.160813,45.2702073 C493.160813,48.8620397 490.603428,51.9079138 486.896657,51.9079138 C485.459924,51.9079138 483.965722,51.3619551 483.161151,50.1263648 L483.103682,50.1263648 L483.103682,51.5056286 L478.707278,51.5056286 Z M485.804739,42.51168 C484.023191,42.51168 482.960008,43.8047395 482.960008,45.3276765 C482.960008,46.9080829 484.023191,48.1149387 485.804739,48.1149387 C487.586288,48.1149387 488.620736,46.9080829 488.620736,45.3276765 C488.620736,43.8047395 487.586288,42.51168 485.804739,42.51168 Z M501.608803,42.51168 C499.798519,42.51168 498.764072,43.8047395 498.792806,45.3276765 C498.792806,46.9080829 499.827253,48.1149387 501.608803,48.1149387 C503.390352,48.1149387 504.424799,46.9080829 504.424799,45.3276765 C504.424799,43.8047395 503.390352,42.51168 501.608803,42.51168 Z M508.677529,39.0922554 L508.677529,51.5343632 L504.281126,51.5343632 L504.281126,50.1550994 L504.223657,50.1550994 C503.476556,51.3906899 501.924884,51.9366483 500.488151,51.9366483 C496.810114,51.9366483 494.223995,48.8620397 494.223995,45.2989419 C494.223995,41.7358441 496.752645,38.6899701 500.430682,38.6899701 C501.867414,38.6899701 503.361617,39.2071941 504.281126,40.2991111 L504.281126,39.0922554 L508.677529,39.0922554 Z M494.655015,56.4767248 L494.166526,57.3962339 C493.936648,57.2812953 493.649302,57.1950913 493.39069,57.1950913 C493.218282,57.1950913 492.930935,57.2812953 492.930935,57.4824378 C492.930935,57.7410497 493.39069,57.7985191 493.591833,57.8272537 C494.25273,57.9709269 494.769953,58.2870083 494.769953,59.0341093 C494.769953,60.1260266 493.792975,60.5570463 492.844732,60.5570463 C492.270038,60.5570463 491.695345,60.3846385 491.206856,60.0972918 L491.72408,59.0915788 C492.040161,59.2927215 492.52865,59.4938639 492.873466,59.4938639 C493.074608,59.4938639 493.333221,59.4076602 493.333221,59.1777828 C493.333221,58.8617015 492.902201,58.8329669 492.442446,58.7180283 C492.011426,58.6030896 491.551672,58.3732123 491.551672,57.6548458 C491.551672,56.6491326 492.442446,56.2181128 493.333221,56.2181128 C493.764241,56.2181128 494.223995,56.2755821 494.655015,56.4767248 Z M497.356073,57.5111726 L497.356073,60.3846385 L495.91934,60.3846385 L495.91934,57.5111726 L495.459585,57.5111726 L495.459585,56.3330515 L495.91934,56.3330515 L495.91934,55.1261956 L497.356073,55.1261956 L497.356073,56.3330515 L498.160643,56.3330515 L498.160643,57.5111726 L497.356073,57.5111726 Z M500.97664,57.4537032 C500.401947,57.4537032 500.057131,57.8847231 500.057131,58.3732123 C500.057131,58.8904361 500.401947,59.2927215 500.97664,59.2927215 C501.551333,59.2927215 501.896149,58.8904361 501.896149,58.3732123 C501.896149,57.8847231 501.551333,57.4537032 500.97664,57.4537032 Z M503.275413,56.3330515 L503.275413,60.4133731 L501.83868,60.4133731 L501.83868,59.9536185 L501.809945,59.9536185 C501.551333,60.3559039 501.034109,60.5283118 500.574355,60.5283118 C499.367499,60.5283118 498.534194,59.5225988 498.534194,58.3732123 C498.534194,57.2238258 499.367499,56.2181128 500.574355,56.2181128 C501.062844,56.2181128 501.551333,56.3905208 501.83868,56.7353367 L501.83868,56.3330515 L503.275413,56.3330515 Z M506.982184,60.3846385 L506.982184,59.9536185 L506.953449,59.9536185 C506.694838,60.3559039 506.177613,60.5283118 505.717859,60.5283118 C504.511003,60.5283118 503.677698,59.5225988 503.677698,58.3732123 C503.677698,57.2238258 504.511003,56.2181128 505.717859,56.2181128 C506.177613,56.2181128 506.694838,56.3905208 506.982184,56.7353367 L506.982184,53.8331359 L508.418918,53.8331359 L508.418918,60.3846385 L506.982184,60.3846385 Z M506.091409,57.4537032 C505.516717,57.4537032 505.1719,57.8847231 505.1719,58.3732123 C505.1719,58.8904361 505.516717,59.2927215 506.091409,59.2927215 C506.666103,59.2927215 507.010918,58.8904361 507.010918,58.3732123 C507.010918,57.8847231 506.666103,57.4537032 506.091409,57.4537032 Z M473.017816,56.3330515 L473.017816,56.7640713 L473.046551,56.7640713 C473.305162,56.3617861 473.822387,56.1606434 474.282141,56.1606434 C475.488997,56.1606434 476.322302,57.1950913 476.322302,58.3444778 C476.322302,59.5225988 475.488997,60.4995772 474.282141,60.4995772 C473.793652,60.4995772 473.333897,60.3271691 473.017816,59.9823531 L473.017816,62.3960647 L471.581082,62.3960647 L471.581082,56.3330515 L473.017816,56.3330515 Z M473.879856,57.4537032 C473.305162,57.4537032 472.960347,57.8847231 472.960347,58.3732123 C472.960347,58.8904361 473.305162,59.2927215 473.879856,59.2927215 C474.454549,59.2927215 474.799365,58.8904361 474.799365,58.3732123 C474.799365,57.8847231 474.454549,57.4537032 473.879856,57.4537032 Z M479.109564,57.4537032 C478.534871,57.4537032 478.190055,57.8847231 478.190055,58.3732123 C478.190055,58.8904361 478.534871,59.2927215 479.109564,59.2927215 C479.684257,59.2927215 480.029073,58.8904361 480.029073,58.3732123 C480.029073,57.8847231 479.684257,57.4537032 479.109564,57.4537032 Z M481.437072,56.3330515 L481.437072,60.4133731 L480.000338,60.4133731 L480.000338,59.9536185 L479.971603,59.9536185 C479.712992,60.3559039 479.195767,60.5283118 478.736013,60.5283118 C477.529157,60.5283118 476.695852,59.5225988 476.695852,58.3732123 C476.695852,57.2238258 477.529157,56.2181128 478.736013,56.2181128 C479.224502,56.2181128 479.712992,56.3905208 480.000338,56.7353367 L480.000338,56.3330515 L481.437072,56.3330515 Z M483.678375,56.3330515 L483.678375,56.9939486 C483.965722,56.5054593 484.425476,56.2755821 485.000169,56.2755821 L485.287516,56.2755821 L485.287516,57.6548458 C485.086373,57.5399072 484.913965,57.5111726 484.684087,57.5111726 C483.879517,57.5111726 483.678375,58.057131 483.678375,58.7467628 L483.678375,60.3846385 L482.241642,60.3846385 L482.241642,56.3330515 L483.678375,56.3330515 Z M487.241472,53.8331359 L487.270207,53.8331359 L487.270207,57.7985191 L488.76441,56.3330515 L490.718367,56.3330515 L488.678206,58.2008043 L490.833305,60.3846385 L488.821879,60.3846385 L487.241472,58.7467628 L487.241472,60.3846385 L485.804739,60.3846385 L485.804739,53.8331359 L487.241472,53.8331359 Z" id="Shape-4" fill="#6b7280" fill-rule="nonzero"></path>
        <path d="M791,20.9160436 L793.027974,20.9160436 L793.027974,24.3391359 L793.097903,24.3391359 C793.610727,23.0816671 794.444053,22.1094721 795.597905,21.4225215 C796.751758,20.7355711 798.062935,20.3921009 799.531475,20.3921009 C800.906775,20.3921009 802.101402,20.6482481 803.115394,21.1605502 C804.129385,21.6728523 804.974366,22.3656141 805.650361,23.2388562 C806.326355,24.1120984 806.827516,25.1250442 807.153858,26.2777238 C807.480201,27.4304036 807.643369,28.6471028 807.643369,29.927858 C807.643369,31.2086132 807.480201,32.4253124 807.153858,33.5779922 C806.827516,34.7306718 806.326355,35.7436176 805.650361,36.6168598 C804.974366,37.4901019 804.129385,38.1770422 803.115394,38.6777011 C802.101402,39.1783599 800.906775,39.4286856 799.531475,39.4286856 C798.87879,39.4286856 798.226116,39.3471842 797.573431,39.1841789 C796.920747,39.0211738 796.314692,38.7766696 795.755249,38.4506592 C795.195805,38.1246488 794.700471,37.7171419 794.269233,37.2281263 C793.837995,36.7391106 793.505831,36.168601 793.272729,35.5165801 L793.202799,35.5165801 L793.202799,45.5762799 L791,45.5762799 L791,20.9160436 Z M805.44057,29.927858 C805.44057,28.9963997 805.329848,28.0707768 805.108402,27.1509617 C804.886956,26.2311466 804.537309,25.4103112 804.059451,24.688431 C803.581592,23.9665508 802.96971,23.3785765 802.223785,22.9244906 C801.47786,22.4704046 800.580432,22.2433651 799.531475,22.2433651 C798.319346,22.2433651 797.30537,22.4529401 796.489514,22.8720964 C795.673659,23.2912526 795.020985,23.8501192 794.531471,24.548713 C794.041958,25.2473068 793.698138,26.0623206 793.500002,26.9937789 C793.301866,27.9252372 793.202799,28.9032538 793.202799,29.927858 C793.202799,30.8593163 793.31352,31.7849392 793.534967,32.7047543 C793.756414,33.6245694 794.117716,34.4454047 794.618884,35.167285 C795.120052,35.8891652 795.772727,36.4771395 796.576927,36.9312254 C797.381128,37.3853114 798.365967,37.6123509 799.531475,37.6123509 C800.580432,37.6123509 801.47786,37.3853114 802.223785,36.9312254 C802.96971,36.4771395 803.581592,35.8891652 804.059451,35.167285 C804.537309,34.4454047 804.886956,33.6245694 805.108402,32.7047543 C805.329848,31.7849392 805.44057,30.8593163 805.44057,29.927858 Z M813.303824,20.9160436 L815.331798,20.9160436 L815.331798,25.1425147 L815.401727,25.1425147 C815.961171,23.6754678 816.829462,22.5460915 818.006625,21.7543519 C819.183787,20.9626124 820.588203,20.6016776 822.219914,20.671537 L822.219914,22.8720964 C821.217577,22.8255234 820.308495,22.9594185 819.49264,23.2737858 C818.676784,23.588153 817.971663,24.0364105 817.377253,24.618572 C816.782844,25.2007335 816.322476,25.8934952 815.996133,26.696878 C815.669792,27.5002609 815.506622,28.3793114 815.506622,29.3340563 L815.506622,38.9396724 L813.303824,38.9396724 L813.303824,20.9160436 Z M833.544709,22.2433651 C832.495752,22.2433651 831.575014,22.4645831 830.782469,22.9070258 C829.989924,23.3494685 829.331422,23.9316213 828.806943,24.6535015 C828.282465,25.3753818 827.886198,26.1962171 827.618132,27.1160322 C827.350065,28.0358473 827.216033,28.9731132 827.216033,29.927858 C827.216033,30.8826028 827.350065,31.8198687 827.618132,32.7396838 C827.886198,33.6594989 828.282465,34.4803342 828.806943,35.2022145 C829.331422,35.9240947 829.989924,36.5062475 830.782469,36.9486902 C831.575014,37.3911329 832.495752,37.6123509 833.544709,37.6123509 C834.593666,37.6123509 835.514403,37.3911329 836.306949,36.9486902 C837.099494,36.5062475 837.757997,35.9240947 838.282475,35.2022145 C838.806953,34.4803342 839.20322,33.6594989 839.471287,32.7396838 C839.739354,31.8198687 839.873385,30.8826028 839.873385,29.927858 C839.873385,28.9731132 839.739354,28.0358473 839.471287,27.1160322 C839.20322,26.1962171 838.806953,25.3753818 838.282475,24.6535015 C837.757997,23.9316213 837.099494,23.3494685 836.306949,22.9070258 C835.514403,22.4645831 834.593666,22.2433651 833.544709,22.2433651 Z M833.544709,20.3921009 C834.920009,20.3921009 836.137946,20.6482481 837.198558,21.1605502 C838.25917,21.6728523 839.15077,22.3597925 839.873385,23.2213915 C840.596,24.0829905 841.14378,25.0901147 841.516743,26.2427944 C841.889706,27.395474 842.076184,28.6238163 842.076184,29.927858 C842.076184,31.2318997 841.889706,32.460242 841.516743,33.6129216 C841.14378,34.7656013 840.596,35.7727255 839.873385,36.6343245 C839.15077,37.4959235 838.25917,38.1770422 837.198558,38.6777011 C836.137946,39.1783599 834.920009,39.4286856 833.544709,39.4286856 C832.16941,39.4286856 830.951472,39.1783599 829.89086,38.6777011 C828.830248,38.1770422 827.938648,37.4959235 827.216033,36.6343245 C826.493419,35.7727255 825.945637,34.7656013 825.572675,33.6129216 C825.199713,32.460242 825.013234,31.2318997 825.013234,29.927858 C825.013234,28.6238163 825.199713,27.395474 825.572675,26.2427944 C825.945637,25.0901147 826.493419,24.0829905 827.216033,23.2213915 C827.938648,22.3597925 828.830248,21.6728523 829.89086,21.1605502 C830.951472,20.6482481 832.16941,20.3921009 833.544709,20.3921009 Z M845.568805,20.9160436 L848.016359,20.9160436 L853.680699,36.7391131 L853.75063,36.7391131 L859.345039,20.9160436 L861.617768,20.9160436 L854.869511,38.9396724 L852.526852,38.9396724 L845.568805,20.9160436 Z M866.054446,14 L868.257245,14 L868.257245,17.5278808 L866.054446,17.5278808 L866.054446,14 Z M866.054446,20.9160436 L868.257245,20.9160436 L868.257245,38.9396724 L866.054446,38.9396724 L866.054446,20.9160436 Z M874.686931,20.9160436 L876.88973,20.9160436 L876.88973,24.0247703 L876.95966,24.0247703 C877.379243,22.9303067 878.125156,22.0512561 879.197424,21.3875921 C880.269691,20.723928 881.446836,20.3921009 882.728895,20.3921009 C883.987643,20.3921009 885.042412,20.5551037 885.893233,20.8811141 C886.744054,21.2071245 887.425866,21.6670252 887.938689,22.2608299 C888.451512,22.8546346 888.812814,23.5823254 889.022606,24.4439244 C889.232397,25.3055234 889.337291,26.2718969 889.337291,27.343074 L889.337291,38.9396724 L887.134492,38.9396724 L887.134492,27.6923692 C887.134492,26.923916 887.064563,26.2078681 886.924702,25.5442041 C886.784841,24.88054 886.540088,24.3042089 886.190436,23.8151932 C885.840783,23.3261776 885.36876,22.9419567 884.774351,22.6625193 C884.179942,22.3830818 883.439856,22.2433651 882.55407,22.2433651 C881.668284,22.2433651 880.881578,22.4005464 880.193928,22.7149136 C879.506279,23.0292807 878.923533,23.4600737 878.445675,24.0073055 C877.967817,24.5545373 877.59486,25.2065484 877.326793,25.9633582 C877.058726,26.7201681 876.91304,27.5410035 876.88973,28.425889 L876.88973,38.9396724 L874.686931,38.9396724 L874.686931,20.9160436 Z M908.459295,26.5746247 C908.156263,25.2240101 907.596827,24.1644922 906.780972,23.396039 C905.965117,22.6275859 904.822936,22.2433651 903.354396,22.2433651 C902.305439,22.2433651 901.384701,22.4645831 900.592156,22.9070258 C899.79961,23.3494685 899.141109,23.9316213 898.61663,24.6535015 C898.092151,25.3753818 897.695885,26.1962171 897.427818,27.1160322 C897.159751,28.0358473 897.02572,28.9731132 897.02572,29.927858 C897.02572,30.8826028 897.159751,31.8198687 897.427818,32.7396838 C897.695885,33.6594989 898.092151,34.4803342 898.61663,35.2022145 C899.141109,35.9240947 899.79961,36.5062475 900.592156,36.9486902 C901.384701,37.3911329 902.305439,37.6123509 903.354396,37.6123509 C904.03039,37.6123509 904.67141,37.4842773 905.277475,37.2281263 C905.883539,36.9719752 906.419664,36.616862 906.885867,36.1627761 C907.35207,35.7086901 907.736682,35.1672882 908.039714,34.5385537 C908.342746,33.9098194 908.529224,33.2228791 908.599155,32.4777124 L910.801954,32.4777124 C910.498922,34.6666396 909.694734,36.3723471 908.389364,37.5948861 C907.083996,38.8174252 905.40569,39.4286856 903.354396,39.4286856 C901.979097,39.4286856 900.761159,39.1783599 899.700547,38.6777011 C898.639935,38.1770422 897.748334,37.4959235 897.02572,36.6343245 C896.303105,35.7727255 895.755325,34.7656013 895.382362,33.6129216 C895.0094,32.460242 894.822921,31.2318997 894.822921,29.927858 C894.822921,28.6238163 895.0094,27.395474 895.382362,26.2427944 C895.755325,25.0901147 896.303105,24.0829905 897.02572,23.2213915 C897.748334,22.3597925 898.639935,21.6728523 899.700547,21.1605502 C900.761159,20.6482481 901.979097,20.3921009 903.354396,20.3921009 C905.289139,20.3921009 906.926653,20.9043953 908.266987,21.9289995 C909.607321,22.9536036 910.405682,24.5021299 910.662094,26.5746247 L908.459295,26.5746247 Z M916.147723,14 L918.350522,14 L918.350522,17.5278808 L916.147723,17.5278808 L916.147723,14 Z M916.147723,20.9160436 L918.350522,20.9160436 L918.350522,38.9396724 L916.147723,38.9396724 L916.147723,20.9160436 Z M937.787211,28.6703955 C937.7639,27.832083 937.618215,27.0287122 937.350148,26.2602591 C937.082081,25.491806 936.703296,24.8106872 936.213783,24.2168826 C935.724269,23.6230779 935.12987,23.1457126 934.430565,22.7847725 C933.73126,22.4238325 932.938727,22.2433651 932.052941,22.2433651 C931.143845,22.2433651 930.339656,22.4238325 929.640352,22.7847725 C928.941047,23.1457126 928.346646,23.6230779 927.857134,24.2168826 C927.36762,24.8106872 926.977181,25.4976275 926.685804,26.2777238 C926.394427,27.0578202 926.202121,27.8553695 926.108881,28.6703955 L937.787211,28.6703955 Z M926.108881,30.5216597 C926.108881,31.3133993 926.219602,32.1342347 926.441048,32.9841904 C926.662495,33.8341461 927.017969,34.5967662 927.507483,35.2720735 C927.996996,35.9473808 928.614706,36.5062475 929.360631,36.9486902 C930.106556,37.3911329 931.003984,37.6123509 932.052941,37.6123509 C933.661342,37.6123509 934.920071,37.1932009 935.829167,36.3548885 C936.738264,35.5165759 937.367628,34.3988427 937.717281,33.0016552 L939.920079,33.0016552 C939.453876,35.0508635 938.597241,36.6343189 937.350148,37.7520689 C936.103054,38.8698189 934.337336,39.4286856 932.052941,39.4286856 C930.631021,39.4286856 929.401429,39.1783599 928.364127,38.6777011 C927.326825,38.1770422 926.481844,37.4901019 925.82916,36.6168598 C925.176476,35.7436176 924.692797,34.7306718 924.37811,33.5779922 C924.063423,32.4253124 923.906081,31.2086132 923.906081,29.927858 C923.906081,28.7402486 924.063423,27.5759432 924.37811,26.4349067 C924.692797,25.2938703 925.176476,24.2751029 925.82916,23.3785743 C926.481844,22.4820456 927.326825,21.7601762 928.364127,21.2129445 C929.401429,20.6657127 930.631021,20.3921009 932.052941,20.3921009 C933.498171,20.3921009 934.73359,20.6831772 935.759238,21.2653387 C936.784884,21.8475002 937.61821,22.6101203 938.259239,23.5532219 C938.900269,24.4963234 939.360637,25.5791275 939.640359,26.8016666 C939.920081,28.0242056 940.03663,29.2641909 939.99001,30.5216597 L926.108881,30.5216597 Z M791.034965,49.8997774 L793.237764,49.8997774 L793.237764,74.8394498 L791.034965,74.8394498 L791.034965,49.8997774 Z M799.73738,49.8997774 L801.940179,49.8997774 L801.940179,53.4276583 L799.73738,53.4276583 L799.73738,49.8997774 Z M799.73738,56.8158211 L801.940179,56.8158211 L801.940179,74.8394498 L799.73738,74.8394498 L799.73738,56.8158211 Z M808.40483,56.8158211 L810.432804,56.8158211 L810.432804,59.8546887 L810.537699,59.8546887 C811.120453,58.7369387 811.883849,57.8637095 812.82791,57.2349752 C813.771972,56.6062408 814.978254,56.2918783 816.446794,56.2918783 C817.635612,56.2918783 818.713691,56.5829547 819.681063,57.1651161 C820.648434,57.7472776 821.295281,58.6321498 821.621623,59.8197591 C822.157757,58.6321498 822.95029,57.7472776 823.999248,57.1651161 C825.048204,56.5829547 826.167075,56.2918783 827.355893,56.2918783 C831.34193,56.2918783 833.334919,58.3992712 833.334919,62.6141202 L833.334919,74.8394498 L831.13212,74.8394498 L831.13212,62.7189087 C831.13212,61.2285754 830.817437,60.0933776 830.188063,59.3132812 C829.558689,58.5331848 828.451474,58.1431426 826.866382,58.1431426 C825.910666,58.1431426 825.118133,58.3236099 824.488759,58.68455 C823.859384,59.0454901 823.358223,59.5286768 822.98526,60.1341248 C822.612298,60.7395727 822.350063,61.4323344 822.198547,62.2124308 C822.047031,62.9925271 821.971274,63.8017195 821.971274,64.6400319 L821.971274,74.8394498 L819.768475,74.8394498 L819.768475,62.6141202 C819.768475,62.0086723 819.704373,61.4323411 819.576167,60.8851093 C819.447962,60.3378775 819.238173,59.8605123 818.946796,59.4529993 C818.655419,59.0454862 818.26498,58.7253022 817.775467,58.4924376 C817.285953,58.259573 816.691553,58.1431426 815.992249,58.1431426 C815.059842,58.1431426 814.249827,58.3119668 813.562177,58.6496204 C812.874527,58.9872741 812.315092,59.4529963 811.883854,60.046801 C811.452616,60.6406057 811.132106,61.3391889 810.922315,62.1425717 C810.712524,62.9459546 810.607629,63.8250052 810.607629,64.77975 L810.607629,74.8394498 L808.40483,74.8394498 L808.40483,56.8158211 Z M839.764605,49.8997774 L841.967404,49.8997774 L841.967404,60.2389133 L842.037334,60.2389133 C842.270435,59.5868925 842.6026,59.0163828 843.033838,58.5273672 C843.465076,58.0383515 843.960409,57.6250231 844.519853,57.2873694 C845.079297,56.9497158 845.685352,56.6993901 846.338037,56.5363849 C846.990721,56.3733797 847.643396,56.2918783 848.29608,56.2918783 C849.671379,56.2918783 850.866006,56.5480255 851.879999,57.0603276 C852.893991,57.5726297 853.738971,58.2653914 854.414966,59.1386337 C855.09096,60.0118758 855.592121,61.0248216 855.918463,62.1775013 C856.244805,63.330181 856.407974,64.5468801 856.407974,65.8276354 C856.407974,67.1083906 856.244805,68.3250899 855.918463,69.4777695 C855.592121,70.6304492 855.09096,71.6433949 854.414966,72.5166372 C853.738971,73.3898794 852.893991,74.0768196 851.879999,74.5774785 C850.866006,75.0781373 849.671379,75.328463 848.29608,75.328463 C846.82754,75.328463 845.516363,74.9908144 844.362511,74.3155071 C843.208657,73.6401998 842.375332,72.6738263 841.862509,71.4163575 L841.792578,71.4163575 L841.792578,74.8394498 L839.764605,74.8394498 L839.764605,49.8997774 Z M854.205175,65.8276354 C854.205175,64.8961771 854.094454,63.9705542 853.873007,63.0507391 C853.651561,62.130924 853.301914,61.3100886 852.824055,60.5882084 C852.346197,59.8663283 851.734315,59.278354 850.988389,58.824268 C850.242464,58.3701821 849.345037,58.1431426 848.29608,58.1431426 C847.130572,58.1431426 846.145732,58.3701821 845.341533,58.824268 C844.537332,59.278354 843.884657,59.8663283 843.383489,60.5882084 C842.88232,61.3100886 842.521018,62.130924 842.299572,63.0507391 C842.078126,63.9705542 841.967404,64.8961771 841.967404,65.8276354 C841.967404,66.7590938 842.078126,67.6847166 842.299572,68.6045317 C842.521018,69.5243468 842.88232,70.3451821 843.383489,71.0670624 C843.884657,71.7889426 844.537332,72.3769169 845.341533,72.8310028 C846.145732,73.2850887 847.130572,73.5121283 848.29608,73.5121283 C849.345037,73.5121283 850.242464,73.2850887 850.988389,72.8310028 C851.734315,72.3769169 852.346197,71.7889426 852.824055,71.0670624 C853.301914,70.3451821 853.651561,69.5243468 853.873007,68.6045317 C854.094454,67.6847166 854.205175,66.7590938 854.205175,65.8276354 Z M876.683824,74.8394498 L874.655851,74.8394498 L874.655851,71.5910051 L874.58592,71.5910051 C874.003167,72.801901 873.158186,73.7275238 872.050954,74.3679014 C870.943721,75.0082789 869.714129,75.328463 868.36214,75.328463 C867.219942,75.328463 866.246758,75.1712817 865.442557,74.8569146 C864.638357,74.5425474 863.985682,74.0942898 863.484514,73.5121283 C862.983346,72.9299669 862.616216,72.2197405 862.383115,71.381428 C862.150013,70.5431155 862.033464,69.588385 862.033464,68.5172079 L862.033464,56.8158211 L864.236263,56.8158211 L864.236263,68.5521375 C864.282883,70.1821896 864.661668,71.4163534 865.372627,72.2546658 C866.083587,73.0929783 867.313179,73.5121283 869.061441,73.5121283 C870.017157,73.5121283 870.833001,73.3083749 871.508995,72.9008618 C872.18499,72.4933488 872.744425,71.9519468 873.187318,71.2766395 C873.630211,70.6013322 873.956549,69.827069 874.16634,68.9538268 C874.376132,68.0805847 874.481025,67.189891 874.481025,66.2817191 L874.481025,56.8158211 L876.683824,56.8158211 L876.683824,74.8394498 Z M883.078546,56.8158211 L885.106519,56.8158211 L885.106519,61.0422921 L885.176449,61.0422921 C885.735893,59.5752452 886.604184,58.4458689 887.781346,57.6541293 C888.958509,56.8623898 890.362925,56.501455 891.994636,56.5713144 L891.994636,58.7718737 C890.9923,58.7253008 890.083217,58.859196 889.267361,59.1735632 C888.451506,59.4879303 887.746384,59.9361879 887.151975,60.5183494 C886.557566,61.1005109 886.097197,61.7932726 885.770855,62.5966554 C885.444513,63.4000382 885.281344,64.2790889 885.281344,65.2338337 L885.281344,74.8394498 L883.078546,74.8394498 L883.078546,56.8158211 Z M911.571185,73.3724103 C911.571185,74.6997384 911.425499,75.898973 911.134122,76.9701501 C910.842745,78.0413272 910.382376,78.9494855 909.753002,79.6946522 C909.123627,80.4398188 908.301957,81.0103284 907.287965,81.4061983 C906.273973,81.8020681 905.032726,82 903.564186,82 C902.65509,82 901.769317,81.8952125 900.906842,81.6856344 C900.044365,81.4760563 899.269315,81.1500507 898.581665,80.707608 C897.894015,80.2651653 897.322925,79.7004771 896.868377,79.0135266 C896.413829,78.3265761 896.151594,77.5057407 896.081663,76.5509959 L898.284462,76.5509959 C898.401013,77.2263032 898.628283,77.7909914 898.966281,78.2450774 C899.304278,78.6991633 899.712199,79.0659195 900.190058,79.345357 C900.667916,79.6247945 901.198214,79.828548 901.780968,79.9566235 C902.363722,80.084699 902.958122,80.1487358 903.564186,80.1487358 C905.61548,80.1487358 907.095653,79.5665831 908.004749,78.4022602 C908.913845,77.2379372 909.368386,75.5613373 909.368386,73.3724103 L909.368386,70.9273443 L909.298456,70.9273443 C908.785633,72.0450943 908.033892,72.9416095 907.04321,73.6169168 C906.052529,74.2922241 904.892865,74.6298727 903.564186,74.6298727 C902.118957,74.6298727 900.883537,74.3911901 899.85789,73.9138177 C898.832242,73.4364453 897.987263,72.7786127 897.322923,71.9403002 C896.658584,71.1019877 896.174905,70.1181496 895.871873,68.9887564 C895.568841,67.8593631 895.417327,66.6543069 895.417327,65.3735517 C895.417327,64.1393694 895.597978,62.9692424 895.959285,61.8631356 C896.320593,60.7570289 896.845064,59.7906554 897.532713,58.9639861 C898.220363,58.1373168 899.071171,57.4853057 900.085162,57.0079333 C901.099155,56.530561 902.258817,56.2918783 903.564186,56.2918783 C904.240181,56.2918783 904.875373,56.3850228 905.469782,56.5713144 C906.064191,56.7576061 906.606144,57.0195748 907.095657,57.3572285 C907.585171,57.6948821 908.02223,58.0849245 908.406848,58.5273672 C908.791465,58.9698099 909.088664,59.4355321 909.298456,59.9245476 L909.368386,59.9245476 L909.368386,56.8158211 L911.571185,56.8158211 L911.571185,73.3724103 Z M903.564186,72.7786085 C904.519903,72.7786085 905.359056,72.5748551 906.081671,72.167342 C906.804286,71.759829 907.410341,71.2242485 907.899853,70.5605844 C908.389367,69.8969204 908.756497,69.1343003 909.001253,68.2727014 C909.24601,67.4111024 909.368386,66.5262302 909.368386,65.6180584 C909.368386,64.7331729 909.263493,63.8483008 909.053701,62.9634154 C908.843909,62.0785299 908.505918,61.2751591 908.039714,60.5532789 C907.573511,59.8313987 906.973283,59.249246 906.239013,58.8068033 C905.504744,58.3643606 904.613144,58.1431426 903.564186,58.1431426 C902.515229,58.1431426 901.617802,58.358539 900.871877,58.7893385 C900.125951,59.220138 899.508241,59.7848261 899.018729,60.4834199 C898.529215,61.1820136 898.17374,61.9795629 897.952294,62.8760915 C897.730848,63.7726202 897.620126,64.6866 897.620126,65.6180584 C897.620126,66.5262302 897.736675,67.4111024 897.969777,68.2727014 C898.202878,69.1343003 898.56418,69.8969204 899.053693,70.5605844 C899.543207,71.2242485 900.160917,71.759829 900.906842,72.167342 C901.652767,72.5748551 902.538539,72.7786085 903.564186,72.7786085 Z" id="provincie-limburg" fill="#6b7280" fill-rule="nonzero"></path>
        <path d="M702.854773,27.143826 C702.854773,25.4097762 704.264844,24.001252 706.000798,24.001252 C707.736752,24.001252 709.144316,25.4097762 709.144316,27.143826 C709.144316,28.8753717 707.736752,30.2838959 706.000798,30.2838959 C704.264844,30.2838959 702.854773,28.8753717 702.854773,27.143826 Z M679.5604,57.7607596 L679.5604,46.3798842 C671.707871,47.3289165 668.136945,48.6785956 668.136945,53.4500496 C668.136945,54.8923783 668.566859,56.154416 669.315137,56.913141 C670.421886,58.0374563 672.131519,58.6096301 674.738584,58.6096301 C676.584837,58.6096301 678.318284,58.3028849 679.5604,57.7607596 Z M684.686791,59.9743336 L684.32832,60.1633888 C681.941853,61.3841098 678.413542,62.0551933 674.421474,62.0551933 C670.096003,62.0551933 666.922403,61.0585842 664.984652,59.0841463 C663.589622,57.670614 662.882707,55.806354 662.882707,53.5464552 C662.882707,49.863008 664.688851,47.2262507 668.408932,45.4846888 C671.655228,43.9634827 675.783916,43.3687725 679.5604,43.0006782 L679.5604,42.175596 C679.5604,40.7032187 679.158059,39.5463509 678.365913,38.740049 C677.349408,37.7058793 675.719993,37.2100788 673.267096,37.2100788 C671.03605,37.2100788 668.670891,37.745944 667.164309,38.3456623 L667.164309,34.3028849 C669.177264,33.6806302 671.628907,33.2211383 674.005347,33.2211383 C677.71164,33.2211383 680.536796,34.1626585 682.359234,36.0156503 C683.904672,37.5856852 684.686791,39.7754708 684.686791,42.5211539 L684.686791,59.9743336 Z M649.361066,55.6122907 L649.411202,55.6122907 C649.730818,54.4366425 649.950162,53.7355105 650.467815,52.3006938 L657.238662,33.8671814 L662.101841,33.8671814 L647.279174,72 L641.856981,72 L646.865554,60.7693672 L636.319476,33.8671814 L641.684013,33.8671814 C641.684013,33.8671814 648.378403,52.2944337 648.38091,52.3006938 C648.711806,53.3123272 649.17807,54.8272732 649.361066,55.6122907 Z M729.560891,34.3867703 L729.560891,38.56101 L729.297677,38.3844749 C728.610816,37.9324952 726.749522,36.8770411 724.25777,36.8770411 C722.449119,36.8770411 721.087931,37.4717513 720.099001,38.5096771 C719.452248,39.1870207 719.107564,40.0008347 719.107564,40.8559654 C719.107564,43.458918 721.34989,44.2176431 724.223928,45.2568209 C727.867552,46.5676874 732,48.1878032 732,53.6453649 C732,55.4495279 731.222894,57.259951 729.810316,58.7435964 C727.798615,60.8520006 724.7115,62.0564453 721.341117,62.0564453 C718.228933,62.0564453 714.975116,61.2952162 713.241669,60.1621368 L712.908265,59.940529 L714.516373,56.3735197 L714.940021,56.6589806 C716.095653,57.433982 718.391875,58.2139913 720.917469,58.2139913 C724.228942,58.2139913 726.71192,56.2070009 726.71192,53.7417706 C726.71192,50.7456831 724.355535,49.8780322 721.384986,48.8300902 C717.931878,47.6131254 714.022535,46.192081 714.022535,41.0011999 C714.022535,37.2326152 717.399185,33.2299024 723.64862,33.2299024 C725.806968,33.2299024 727.878833,33.6443216 729.560891,34.3867703 Z M613.09404,47.6193855 C613.09404,42.0954666 616.050802,38.79639 621.005478,38.79639 C625.960154,38.79639 628.916916,42.0954666 628.916916,47.6193855 C628.916916,53.1458083 625.960154,56.444885 621.005478,56.444885 C616.050802,56.444885 613.09404,53.1458083 613.09404,47.6193855 Z M621.004225,53.944598 C624.936129,53.944598 625.523972,49.980698 625.523972,47.6193855 C625.523972,45.2580729 624.936129,41.2941729 621.004225,41.2941729 C617.07232,41.2941729 616.486984,45.2580729 616.486984,47.6193855 C616.486984,49.980698 617.071067,53.944598 621.004225,53.944598 Z M691.497747,24.001252 L696.624139,24.001252 L696.624139,61.3740936 L691.497747,61.3740936 L691.497747,24.001252 Z M703.433842,33.8684334 L708.560233,33.8684334 L708.560233,61.3740936 L703.433842,61.3740936 L703.433842,33.8684334 Z M607.704435,61.3778497 L607.704435,61.3791017 L589,61.3791017 L589,61.3728416 L589,24 L594.328188,24 L594.328188,57.1009442 L604.766474,57.1009442 C605.526032,58.6684751 606.519975,60.1007877 607.704435,61.3528092 L607.704435,61.3778497 Z M621.04684,35.5436382 C613.42243,36.8432365 608.229608,43.9897752 609.505566,51.5970577 C609.911666,53.9959309 610.723867,56.4386249 611.918354,58.4606396 C608.237129,55.8990036 605.841888,51.6220982 605.893277,46.8043195 C605.973495,39.0555585 612.342002,32.8392717 620.119327,32.9181491 C623.155053,32.9507017 625.953887,33.9372946 628.237576,35.5849549 C625.957647,35.127967 623.418266,35.1404872 621.04684,35.5436382 Z M620.960356,59.6988888 C628.58978,58.3992905 633.782601,51.2502478 632.50163,43.6454692 C632.098037,41.2465961 631.287089,38.8039021 630.087589,36.7831394 C633.773828,39.3435234 636.169068,43.6204288 636.117679,48.4357035 C636.033701,56.1894726 629.665194,62.4032553 621.889123,62.3231259 C618.85465,62.2943294 616.055816,61.3052324 613.772127,59.6550681 C616.050802,60.1120559 618.58893,60.1007877 620.960356,59.6988888 Z" id="Path-3" fill="#6b7280"></path>
    </g>
</svg>
