<?xml version="1.0" encoding="UTF-8"?>
<svg width="475px" height="395px" viewBox="0 0 475 395" version="1.1" xmlns="http://www.w3.org/2000/svg" xmlns:xlink="http://www.w3.org/1999/xlink">
    <!-- Generator: Sketch 52.2 (67145) - http://www.bohemiancoding.com/sketch -->
    <title>Artboard</title>
    <desc>Created with Sketch.</desc>
    <g id="Artboard" stroke="none" stroke-width="1" fill="none" fill-rule="evenodd">
        <g id="Plantje" transform="translate(239.741935, 202.903226) scale(-1, 1) translate(-239.741935, -202.903226) translate(0.000000, 6.000000)">
            <path d="M154.242581,365.323871 C145.638194,351.400774 130.115613,337.569032 90.1827097,342.437161 C50.2482581,347.30529 29.163871,355.408 0.322064516,350.539871 L0.483096774,393.386839 L81.7734194,393.386839 C93.2190968,382.226065 138.221419,356.490323 148.355613,366.77471 C153.390968,371.88129 157.347097,382.253935 160.863484,393.386839 L169.165935,393.386839 C163.263484,381.668645 157.500387,370.597677 154.242581,365.323871" id="Fill-246" fill="#28322C"></path>
            <path d="M213.310452,311.082323 C208.734968,287.955613 191.264516,238.963097 154.033548,223.901935 C116.804129,208.837677 47.3357419,145.847742 47.3357419,145.847742 C42.24,161.755871 45.4683871,200.601806 46.8232258,214.301935 C47.0012903,216.116645 50.0748387,216.87071 51.7269677,215.514323 C57.8756129,210.45729 68.9109677,201.712 74.3752258,199.404903 C82.1930323,196.102194 86.475871,201.310968 78.48,205.034839 C66.2988387,210.708129 55.8348387,222.170839 49.8534194,228.618323 C48.1470968,230.457806 47.547871,232.712258 48.1362581,234.892387 C53.396129,254.408258 72.1517419,273.382194 79.0389677,279.845161 C80.2590968,280.990968 82.6606452,280.867097 83.6732903,279.619097 L109.732645,247.483871 C116.262194,239.432258 122.573419,248.093935 115.556129,256.918194 C110.050065,263.841032 96.692129,279.283097 91.1938065,285.611355 C89.6562581,287.384258 89.8869677,289.689806 91.796129,291.256774 C95.136,293.994323 102.140903,299.215484 116.804129,308.951742 C143.842065,326.90529 179.696516,332.813935 192.363871,335.144258 C206.84129,337.809032 205.994323,349.824516 206.370581,378.940387 C206.430968,383.68929 206.293161,388.577548 206.031484,393.386839 L213.293419,393.386839 C215.475097,363.140645 216.128516,325.327484 213.310452,311.082323" id="Fill-247" fill="#28322C"></path>
            <g id="Group-251" transform="translate(6.193548, 266.838710)">
                <path d="M284.571871,7.06064516 C261.192774,3.2516129 227.828129,31.0745806 226.011871,61.5700645 C225.154065,75.984 221.910194,102.546581 218.729806,126.548129 L223.628903,126.548129 C227.479742,106.409806 234.814452,81.9870968 247.57471,80.6260645 C254.989935,79.8363871 257.521548,80.4805161 260.915613,81.1246452 C264.066581,81.723871 267.960774,82.3215484 277.195355,81.771871 C292.227097,80.8738065 309.003871,69.2067097 315.555097,64.203871 C316.88671,63.1865806 317.27071,60.2818065 316.307613,58.4314839 C311.993806,50.1569032 311.794065,42.2059355 310.900645,35.2676129 C309.881806,27.3522581 314.023742,29.1375484 314.842839,35.3945806 C316.275097,46.3169032 323.301677,53.9210323 326.208,56.6461935 C326.955871,57.3476129 327.891097,57.3135484 328.580129,56.4588387 C342.678194,38.996129 342.678194,0.582193548 342.678194,0.582193548 C329.058581,11.636129 307.949419,10.8743226 284.571871,7.06064516" id="Fill-248" fill="#28322C"></path>
                <path d="M209.622194,126.548129 C209.622194,126.548129 183.562839,52.2627097 174.958452,33.2314839 C166.352516,14.1987097 150.831484,-4.71174194 110.897032,1.94477419 C70.964129,8.59974194 49.8797419,19.6753548 21.0379355,13.0203871 C-7.80232258,6.36387097 -0.583741935,45.572129 7.17987097,61.1009032 C14.6291613,75.9994839 24.1207742,96.0030968 53.2846452,93.6867097 C55.4183226,93.5163871 57.0967742,91.776 57.0967742,89.6376774 C57.0967742,89.6376774 60.0712258,67.0993548 60.0712258,56.6647742 C60.0712258,49.8565161 65.2784516,49.8565161 65.2784516,56.7034839 C65.2784516,64.532129 65.2784516,84.7169032 65.2784516,84.7169032 C65.2784516,87.8028387 68.5811613,89.7615484 71.28,88.2611613 C83.204129,81.627871 100.107871,73.2665806 115.472516,52.7814194 C126.918194,37.5220645 160.321548,24.4954839 166.561548,33.2314839 C172.801548,41.9674839 179.941161,63.7703226 184.100129,82.9037419 C188.260645,102.03871 188.268387,126.548129 188.268387,126.548129 L209.622194,126.548129" id="Fill-250" fill="#006E4E"></path>
            </g>
            <path d="M228.284903,393.386839 C228.284903,393.386839 233.60671,353.285161 233.278452,318.683355 C232.902194,278.882065 233.75071,262.456774 219.27329,258.813419 C206.605935,255.628387 170.751484,247.552 143.713548,223.008516 C129.050323,209.700129 122.045419,202.562065 118.705548,198.816516 C116.796387,196.676645 116.564129,193.522581 118.103226,191.102452 C123.601548,182.451613 136.959484,161.342452 142.465548,151.877161 C149.482839,139.813677 143.171613,127.97471 136.640516,138.982194 L110.581161,182.909935 C109.570065,184.61471 107.168516,184.785032 105.948387,183.219613 C99.0611613,174.384516 80.3055484,148.445935 75.044129,121.768774 C74.4557419,118.788129 75.0549677,115.708387 76.7628387,113.19071 C82.7427097,104.378839 93.2082581,88.7091613 105.389419,80.9532903 C113.383742,75.8621935 109.100903,68.7427097 101.284645,73.2562581 C95.8188387,76.4134194 84.7850323,88.3654194 78.6363871,95.2774194 C76.9827097,97.1339355 73.9107097,96.1027097 73.7326452,93.6237419 C72.3778065,74.8929032 69.1494194,21.7894194 74.2451613,0.0454193548 C74.2451613,0.0454193548 143.713548,86.1527742 180.942968,106.744774 C218.172387,127.333677 235.642839,194.306065 240.219871,225.921032 C244.795355,257.534452 240.219871,374.08 234.811355,393.386839 L228.284903,393.386839" id="Fill-252" fill="#079669"></path>
            <path d="M238.971871,393.386839 C238.971871,393.386839 261.850839,300.796387 265.178323,267.518452 C268.505806,234.240516 329.65471,203.873548 372.500129,208.032516 C415.345548,212.193032 454.030452,213.026065 478.990452,200.962581 C478.990452,200.962581 478.990452,242.883613 453.154065,261.94271 C451.890581,262.874839 450.178065,262.912 448.807742,262.147097 C443.48129,259.172645 430.603355,250.874839 427.978839,238.953806 C426.475355,232.126968 418.88671,230.177548 420.754065,238.816 C422.389161,246.386065 422.756129,255.064774 430.662194,264.096516 C432.428903,266.114065 431.724387,269.282065 429.282581,270.393806 C417.276387,275.853419 386.531613,288.587355 358.981161,289.565935 C342.055742,290.165161 334.920774,289.51329 329.14529,288.859871 C322.925419,288.156903 318.284903,287.453935 304.696258,288.316387 C278.489806,289.980903 264.761806,323.258839 258.521806,346.137806 C252.283355,369.016774 245.626839,393.386839 245.626839,393.386839 L238.971871,393.386839" id="Fill-253" fill="#079669"></path>
            <path d="M300.281806,393.386839 C297.313548,385.380129 295.752774,381.080258 285.976258,372.344258 C266.426323,354.872258 257.690323,338.23329 245.626839,349.050323 C233.563355,359.865806 236.420129,384.700387 236.420129,384.700387 L237.669677,350.092387 C237.669677,350.092387 261.980903,312.859871 284.729806,317.018839 C298.83871,319.6 330.90271,328.546581 345.462194,354.811871 C352.371097,367.279484 357.313548,380.669935 361.933935,393.386839 L300.281806,393.386839" id="Fill-254" fill="#079669"></path>
            <path d="M358.231742,207.843613 C360.289548,207.715097 362.327226,207.650065 364.337032,207.650065 C362.327226,207.650065 360.289548,207.715097 358.231742,207.843613" id="Fill-255" fill="#B6C1CE"></path>
            <path d="M263.357419,280.862452 C264.173419,275.803871 264.802065,271.277935 265.178323,267.518452 C268.149677,237.797161 317.247484,210.396903 358.231742,207.843613 C317.247484,210.396903 268.151226,237.797161 265.178323,267.518452 C264.802065,271.281032 264.176516,275.802323 263.362065,280.860903 C263.360516,280.860903 263.358968,280.862452 263.357419,280.862452" id="Fill-256" fill="#ADB9C9"></path>
            <path d="M261.84,289.717677 C262.395871,286.628645 262.90529,283.663484 263.357419,280.862452 C263.358968,280.862452 263.360516,280.860903 263.362065,280.860903 C262.911484,283.65729 262.403613,286.617806 261.847742,289.706839 C261.846194,289.709935 261.843097,289.714581 261.84,289.717677" id="Fill-257" fill="#9CAABE"></path>
            <path d="M421.045161,210.816516 C407.422452,210.816516 392.77471,209.899871 377.547871,208.509419 C392.714323,209.893677 407.301677,210.801032 420.87329,210.801032 C440.268387,210.801032 457.591742,208.947613 471.589161,203.983484 C471.562839,204.009806 471.538065,204.034581 471.511742,204.060903 C457.571613,208.980129 440.331871,210.816516 421.045161,210.816516" id="Fill-258" fill="#B6C1CE"></path>
            <path d="M261.847742,289.706839 C262.403613,286.617806 262.911484,283.65729 263.362065,280.860903 C264.176516,275.802323 264.802065,271.281032 265.178323,267.518452 C268.151226,237.797161 317.247484,210.396903 358.231742,207.843613 C360.289548,207.715097 362.327226,207.650065 364.337032,207.650065 C367.117935,207.650065 369.843097,207.775484 372.500129,208.032516 C374.189419,208.198194 375.870968,208.356129 377.547871,208.509419 C392.77471,209.899871 407.422452,210.816516 421.045161,210.816516 C440.331871,210.816516 457.571613,208.980129 471.511742,204.060903 C458.413935,216.856774 433.859613,226.761806 384.693677,228.832 C319.938581,231.560258 279.36929,263.551484 261.847742,289.706839" id="Fill-259" fill="#006E4E"></path>
            <path d="M73.8270968,1.99019355 C73.8286452,1.98709677 73.8286452,1.98554839 73.8286452,1.98245161 C73.8286452,1.984 73.8286452,1.98864516 73.8270968,1.99019355 M73.844129,1.91122581 C73.844129,1.90812903 73.844129,1.90658065 73.844129,1.90348387 C73.844129,1.90658065 73.844129,1.90812903 73.844129,1.91122581 M73.8596129,1.8276129 C73.8627097,1.81367742 73.8658065,1.80129032 73.8673548,1.78735484 C73.8658065,1.80283871 73.8627097,1.81367742 73.8596129,1.8276129 M73.8735484,1.75948387 C73.8781935,1.73935484 73.8812903,1.71922581 73.8859355,1.69909677 C73.8812903,1.71922581 73.8781935,1.73935484 73.8735484,1.75948387 M73.8874839,1.69135484 C73.988129,1.19277419 74.0934194,0.708129032 74.2002581,0.238967742 C74.0934194,0.708129032 73.988129,1.19277419 73.8874839,1.69135484 M74.2018065,0.235870968 C74.2064516,0.217290323 74.2110968,0.19716129 74.2157419,0.177032258 C74.2110968,0.19716129 74.2064516,0.215741935 74.2018065,0.235870968 M74.2188387,0.161548387 C74.2219355,0.144516129 74.2265806,0.129032258 74.2296774,0.112 C74.2265806,0.129032258 74.2219355,0.146064516 74.2188387,0.161548387" id="Fill-260" fill="#B6C1CE"></path>
            <path d="M242.093419,268.715355 C231.307355,234.742194 186.142452,221.134968 183.101419,173.923097 C179.617548,119.845677 128.036129,128.999742 120.549677,77.4167742 C116.647742,50.5429677 93.2144516,34.6363871 71.6578065,25.5504516 C71.9473548,16.452129 72.6069677,8.19148387 73.8270968,1.99019355 C73.8286452,1.98864516 73.8286452,1.984 73.8286452,1.98245161 C73.8332903,1.95922581 73.8379355,1.93445161 73.844129,1.91122581 C73.844129,1.90812903 73.844129,1.90658065 73.844129,1.90348387 C73.8503226,1.87870968 73.8549677,1.8523871 73.8596129,1.8276129 C73.8627097,1.81367742 73.8658065,1.80283871 73.8673548,1.78735484 C73.8704516,1.77806452 73.872,1.76877419 73.8735484,1.75948387 C73.8781935,1.73935484 73.8812903,1.71922581 73.8859355,1.69909677 C73.8859355,1.69754839 73.8874839,1.69445161 73.8874839,1.69135484 C73.988129,1.19277419 74.0934194,0.708129032 74.2002581,0.238967742 C74.2002581,0.237419355 74.2018065,0.237419355 74.2018065,0.235870968 C74.2064516,0.215741935 74.2110968,0.19716129 74.2157419,0.177032258 C74.2157419,0.17083871 74.2172903,0.166193548 74.2188387,0.161548387 C74.2219355,0.146064516 74.2265806,0.129032258 74.2296774,0.112 C74.235871,0.0903225806 74.2405161,0.0686451613 74.2451613,0.0454193548 C74.2451613,0.0454193548 143.713548,86.1527742 180.942968,106.744774 C218.172387,127.333677 235.642839,194.306065 240.219871,225.921032 C241.506581,234.814968 242.070194,250.432 242.093419,268.715355" id="Fill-261" fill="#006E4E"></path>
        </g>
    </g>
</svg>
